<svg data-v-423bf9ae="" xmlns="http://www.w3.org/2000/svg" viewBox="0 0 342 90" class="iconLeftSlogan"><!----><!----><!----><g data-v-423bf9ae="" id="f16702ea-09a3-489d-85e0-aec871c044b4" fill="#022239" transform="matrix(5.714285714285714,0,0,5.714285714285714,108.49483922549656,-1.1999991238117218)"><path d="M0.49 7.28C0.64 9.42 1.95 10.71 4.62 10.71C6.54 10.71 8.50 9.70 8.50 7.57C8.50 5.89 7.46 5.01 5.99 4.59C5.03 4.33 4.02 4.05 3.56 3.86C3.08 3.68 2.93 3.46 2.93 3.08C2.93 2.55 3.47 2.17 4.38 2.17C5.46 2.17 5.85 2.67 5.98 3.40L8.16 3.30C8.02 1.20 6.71 0.21 4.33 0.21C2.49 0.21 0.77 1.19 0.77 3.28C0.77 4.23 1.11 5.35 2.87 5.88C3.47 6.06 4.59 6.36 5.12 6.54C5.92 6.80 6.20 7.07 6.20 7.64C6.20 8.44 5.46 8.75 4.56 8.75C3.40 8.75 2.76 8.36 2.65 7.17L0.49 7.28ZM12.28 10.50L12.28 0.42L10.04 0.42L10.04 10.50ZM21.77 10.50L21.77 8.47L16.48 8.47L16.48 0.42L14.24 0.42L14.24 10.50ZM27.05 10.50L31.08 0.42L28.80 0.42L26.08 7.71L23.45 0.42L21.14 0.42L25.06 10.50ZM38.61 6.06C38.61 7.99 37.87 8.68 36.57 8.68C35.27 8.68 34.51 7.99 34.51 6.06L34.51 0.42L32.27 0.42L32.27 6.27C32.27 9.00 33.84 10.71 36.57 10.71C39.33 10.71 40.85 9.00 40.85 6.27L40.85 0.42L38.61 0.42Z"></path></g><defs data-v-423bf9ae=""><linearGradient data-v-423bf9ae="" gradientTransform="rotate(25)" id="16cebf71-a133-4d7b-96ea-3e111116ff95" x1="0%" y1="0%" x2="100%" y2="0%"><stop data-v-423bf9ae="" offset="0%" style="stop-color: rgb(0, 10, 104); stop-opacity: 1;"></stop><stop data-v-423bf9ae="" offset="100%" style="stop-color: rgb(0, 196, 238); stop-opacity: 1;"></stop></linearGradient></defs><g data-v-423bf9ae="" id="f6c9215f-54e5-4a36-881d-f49400699915" transform="matrix(2.852072528086791,0,0,2.852072528086791,0.3618419448213217,-0.41116010653409063)" stroke="none" fill="url(#16cebf71-a133-4d7b-96ea-3e111116ff95)"><path d="M16 23.787L8.102 16 16 8.213 23.898 16 16 23.787zM9.525 16L16 22.383 22.475 16 16 9.617 9.525 16z"></path><path d="M15.915 31.778L-.005 16.084 16.085.222l15.92 15.694-16.09 15.862zM1.419 16.084l14.496 14.29 14.666-14.458-14.496-14.29L1.419 16.084z"></path><path d="M15.5.924h1v30.152h-1z"></path></g><!----><g data-v-423bf9ae="" id="3a22c04b-126c-4fd4-a1c4-100e067025c3" fill="#022239" transform="matrix(0.8588318248003148,0,0,0.8588318248003148,111.08012781563305,57.50938947510801)"><path d="M0.25 5.01C0.25 5.17 0.43 5.17 0.56 5.17C0.71 5.17 0.76 5.15 0.77 4.97L0.88 3.89C0.90 3.81 1.44 3.75 2.20 3.75L4.19 3.75C4.24 3.75 4.27 4.35 4.27 4.97C4.27 6.43 4.21 12.18 4.09 12.18L3.22 12.18C3.00 12.18 2.95 12.19 2.95 12.39C2.95 12.63 2.97 12.68 3.16 12.68C3.49 12.68 4.47 12.64 4.89 12.64C5.31 12.64 6.24 12.68 6.57 12.68C6.73 12.68 6.76 12.61 6.76 12.40C6.76 12.24 6.73 12.18 6.57 12.18L5.57 12.18C5.54 12.18 5.54 11.76 5.54 11.31C5.54 9.56 5.63 5.96 5.63 5.92C5.64 5.18 5.64 3.75 5.74 3.75L7.35 3.75C8.06 3.75 8.89 3.78 8.89 3.85C8.89 3.99 8.85 4.90 8.85 4.97C8.85 5.12 8.92 5.17 9.10 5.17C9.30 5.17 9.37 5.17 9.37 5.03C9.37 3.93 9.42 3.40 9.42 3.14C9.42 2.94 9.34 2.94 9.14 2.94C8.99 2.94 8.93 2.98 8.92 3.16C8.92 3.23 8.27 3.28 7.43 3.28L2.44 3.28C1.78 3.28 0.97 3.28 0.97 3.21L0.97 3.07C0.97 2.94 0.84 2.94 0.74 2.94C0.52 2.94 0.49 3.00 0.48 3.19C0.42 3.89 0.25 4.97 0.25 5.01ZM17.18 12.39C17.18 12.63 17.18 12.68 17.37 12.68C17.70 12.68 18.63 12.64 19.05 12.64C19.47 12.64 20.30 12.68 20.62 12.68C20.79 12.68 20.79 12.61 20.79 12.40C20.79 12.24 20.79 12.18 20.62 12.18L19.70 12.18C19.61 12.18 19.57 9.93 19.57 8.20C19.57 8.01 19.57 8.01 19.70 8.01L24.93 8.01C25.00 8.01 25.02 8.01 25.02 8.18L25.02 9.91C25.02 11.05 25.00 12.18 24.95 12.18L24.18 12.18C23.95 12.18 23.91 12.19 23.91 12.39C23.91 12.63 23.93 12.68 24.12 12.68C24.44 12.68 25.28 12.64 25.70 12.64C26.12 12.64 26.71 12.68 27.03 12.68C27.20 12.68 27.22 12.61 27.22 12.40C27.22 12.24 27.20 12.18 27.03 12.18L26.29 12.18C26.25 12.18 26.24 9.27 26.24 7.04C26.24 5.40 26.24 3.70 26.28 3.70L26.89 3.70C27.12 3.70 27.16 3.68 27.16 3.49C27.16 3.25 27.15 3.19 26.95 3.19C26.81 3.19 26.18 3.23 25.59 3.23C24.92 3.23 24.32 3.19 24.09 3.19C23.90 3.19 23.87 3.22 23.87 3.44C23.87 3.67 23.94 3.70 24.11 3.70L24.91 3.70C24.96 3.70 25.02 4.79 25.02 5.71L25.02 7.42C25.02 7.59 25.02 7.59 24.85 7.59L19.74 7.59C19.57 7.59 19.57 7.59 19.57 7.38C19.57 6.96 19.56 6.23 19.56 5.53C19.56 4.66 19.57 3.70 19.63 3.70L20.40 3.70C20.62 3.70 20.66 3.68 20.66 3.49C20.66 3.25 20.65 3.19 20.45 3.19C20.13 3.19 19.54 3.23 18.94 3.23C18.35 3.23 17.86 3.19 17.64 3.19C17.46 3.19 17.36 3.21 17.36 3.44C17.36 3.68 17.47 3.70 17.64 3.70L18.26 3.70C18.31 3.70 18.33 5.59 18.33 7.18L18.33 8.61C18.33 10.08 18.31 12.18 18.24 12.18L17.43 12.18C17.21 12.18 17.18 12.19 17.18 12.39ZM35.25 12.39C35.25 12.63 35.28 12.68 35.48 12.68C35.80 12.68 36.76 12.64 37.18 12.64C37.60 12.64 42.11 12.68 42.43 12.68C42.56 12.68 42.71 12.66 42.71 12.49C42.71 12.07 42.76 11.23 42.76 10.53C42.76 10.39 42.60 10.39 42.48 10.39C42.36 10.39 42.24 10.39 42.24 10.51C42.22 11.06 42.22 11.41 42.20 11.76C42.17 12.01 42.17 12.04 42.07 12.04C41.92 12.04 39.28 12.08 37.79 12.08C37.72 12.08 37.67 10.11 37.63 8.26C37.63 8.06 37.67 8.09 37.81 8.09L40.10 8.09C40.80 8.09 40.82 8.20 40.82 8.30L40.82 9.00C40.82 9.14 41.01 9.14 41.12 9.14C41.22 9.14 41.34 9.13 41.34 9.02C41.34 8.83 41.31 8.33 41.31 7.83C41.31 7.32 41.34 6.83 41.34 6.71C41.34 6.59 41.20 6.58 41.10 6.58C40.99 6.58 40.82 6.59 40.82 6.72L40.82 7.45C40.82 7.62 40.38 7.63 40.10 7.63L37.76 7.63C37.65 7.63 37.63 7.63 37.63 7.45C37.62 6.75 37.60 6.06 37.60 5.46C37.60 5.12 37.60 3.71 37.69 3.71C38.92 3.71 41.43 3.75 41.43 3.81C41.43 3.99 41.38 4.83 41.38 4.89C41.38 5.04 41.45 5.10 41.64 5.10C41.83 5.10 41.90 5.08 41.90 4.94C41.90 3.85 41.96 3.36 41.96 3.09C41.96 2.91 41.87 2.90 41.68 2.90C41.48 2.90 41.48 2.95 41.45 3.11C41.44 3.25 41.51 3.25 40.60 3.25C39.98 3.25 37.84 3.29 37.07 3.29C36.58 3.29 35.64 3.25 35.55 3.25C35.42 3.25 35.36 3.30 35.36 3.49C35.36 3.72 35.43 3.74 35.60 3.74L36.26 3.74C36.32 3.74 36.39 4.79 36.39 5.71C36.39 5.80 36.44 8.27 36.44 9.83L36.44 11.17C36.44 11.84 36.41 12.18 36.39 12.18L35.53 12.18C35.31 12.18 35.25 12.21 35.25 12.39ZM60.45 12.46C60.45 12.63 60.47 12.70 60.65 12.70C60.80 12.70 62.03 12.64 62.43 12.64C63.28 12.64 64.16 12.70 65.02 12.70C67.63 12.70 70.03 11.07 70.03 7.91C70.03 4.89 67.69 3.07 64.65 3.07C64.09 3.07 62.83 3.23 61.80 3.23C61.32 3.23 60.86 3.22 60.80 3.22C60.62 3.22 60.61 3.32 60.61 3.49C60.61 3.68 60.68 3.70 60.80 3.70L61.77 3.67C61.80 3.67 61.80 4.20 61.80 4.72C61.80 5.91 61.71 12.21 61.63 12.21L60.73 12.21C60.55 12.21 60.45 12.22 60.45 12.46ZM63.03 11.40C63.03 9.46 63.03 7.52 63.04 5.60C63.04 5.03 63.08 3.61 63.13 3.60C63.42 3.53 64.01 3.51 64.36 3.51C66.92 3.51 68.53 5.75 68.53 7.73C68.53 8.95 68.49 12.25 63.81 12.25C63.55 12.25 63.14 12.25 63.04 12.21C63.03 12.19 63.03 11.79 63.03 11.40ZM78.13 3.51C78.13 3.72 78.20 3.79 78.40 3.79L79.21 3.77C79.31 3.77 79.35 6.61 79.35 8.55L79.35 10.42C79.35 11.30 79.34 12.18 79.30 12.18L78.69 12.18C78.47 12.18 78.40 12.19 78.40 12.39C78.40 12.63 78.44 12.68 78.64 12.68C78.76 12.68 79.59 12.64 80.01 12.64C80.43 12.64 81.20 12.68 81.52 12.68C81.69 12.68 81.72 12.61 81.72 12.40C81.72 12.24 81.69 12.18 81.52 12.18L80.71 12.18C80.64 12.18 80.56 9.18 80.56 8.37C80.56 8.30 80.56 8.26 80.67 8.26C81.06 8.26 81.66 8.27 81.96 8.27C84.20 8.32 84.34 10.00 84.34 11.68L84.34 12.49C84.34 12.61 84.39 12.64 84.49 12.64C84.49 12.64 85.93 12.68 86.41 12.68C86.58 12.68 86.63 12.64 86.63 12.53C86.63 12.24 86.58 12.18 86.42 12.18L85.78 12.18C85.68 12.18 85.65 12.14 85.62 11.31C85.54 8.99 84.17 8.34 83.26 8.05C83.12 8.01 83.15 8.01 83.26 7.95C83.85 7.69 85.16 6.94 85.16 5.63C85.16 3.63 83.47 3.21 82.07 3.21C81.75 3.21 80.46 3.29 80.04 3.29C79.62 3.29 78.64 3.26 78.41 3.26C78.23 3.26 78.13 3.28 78.13 3.51ZM80.56 7.80L80.56 4.40C80.56 4.05 80.58 3.68 80.63 3.68C80.84 3.65 81.12 3.65 81.34 3.65C82.64 3.65 83.89 4.47 83.89 5.82C83.89 6.99 83.34 7.57 82.68 7.88C82.64 7.90 82.60 7.90 82.53 7.90C82.05 7.88 81.34 7.88 80.74 7.87C80.57 7.87 80.56 7.85 80.56 7.80ZM94.11 12.39C94.11 12.63 94.14 12.68 94.33 12.68C94.65 12.68 95.62 12.64 96.04 12.64C96.46 12.64 100.97 12.68 101.29 12.68C101.42 12.68 101.57 12.66 101.57 12.49C101.57 12.07 101.61 11.23 101.61 10.53C101.61 10.39 101.46 10.39 101.33 10.39C101.22 10.39 101.09 10.39 101.09 10.51C101.08 11.06 101.08 11.41 101.05 11.76C101.02 12.01 101.02 12.04 100.93 12.04C100.77 12.04 98.14 12.08 96.64 12.08C96.57 12.08 96.53 10.11 96.49 8.26C96.49 8.06 96.53 8.09 96.67 8.09L98.95 8.09C99.65 8.09 99.68 8.20 99.68 8.30L99.68 9.00C99.68 9.14 99.86 9.14 99.97 9.14C100.07 9.14 100.20 9.13 100.20 9.02C100.20 8.83 100.17 8.33 100.17 7.83C100.17 7.32 100.20 6.83 100.20 6.71C100.20 6.59 100.06 6.58 99.96 6.58C99.85 6.58 99.68 6.59 99.68 6.72L99.68 7.45C99.68 7.62 99.23 7.63 98.95 7.63L96.61 7.63C96.50 7.63 96.49 7.63 96.49 7.45C96.47 6.75 96.46 6.06 96.46 5.46C96.46 5.12 96.46 3.71 96.54 3.71C97.78 3.71 100.28 3.75 100.28 3.81C100.28 3.99 100.24 4.83 100.24 4.89C100.24 5.04 100.31 5.10 100.49 5.10C100.69 5.10 100.76 5.08 100.76 4.94C100.76 3.85 100.81 3.36 100.81 3.09C100.81 2.91 100.73 2.90 100.53 2.90C100.34 2.90 100.34 2.95 100.31 3.11C100.30 3.25 100.37 3.25 99.46 3.25C98.84 3.25 96.70 3.29 95.93 3.29C95.44 3.29 94.50 3.25 94.40 3.25C94.28 3.25 94.22 3.30 94.22 3.49C94.22 3.72 94.29 3.74 94.46 3.74L95.12 3.74C95.17 3.74 95.24 4.79 95.24 5.71C95.24 5.80 95.30 8.27 95.30 9.83L95.30 11.17C95.30 11.84 95.27 12.18 95.24 12.18L94.39 12.18C94.16 12.18 94.11 12.21 94.11 12.39ZM109.44 12.39C109.44 12.63 109.44 12.68 109.63 12.68C109.80 12.68 110.12 12.64 110.70 12.64C111.31 12.64 111.86 12.68 112.01 12.68C112.18 12.68 112.18 12.61 112.18 12.40C112.18 12.24 112.18 12.18 112.01 12.18L110.94 12.18C110.94 12.18 110.92 12.18 110.92 12.17C110.94 11.87 111.71 9.90 112.06 9.02C112.13 8.83 112.14 8.79 112.35 8.79L115.18 8.79C115.32 8.79 115.32 8.81 115.39 9.03C115.65 9.77 116.37 11.89 116.37 12.17C116.37 12.18 116.35 12.18 116.35 12.18L115.58 12.18C115.36 12.18 115.35 12.19 115.35 12.39C115.35 12.63 115.36 12.68 115.53 12.68C115.85 12.68 116.72 12.64 117.14 12.64C117.56 12.64 118.23 12.68 118.44 12.68C118.58 12.68 118.59 12.61 118.59 12.40C118.59 12.24 118.58 12.18 118.44 12.18L117.95 12.18C117.85 12.18 116.83 9.34 116.27 7.78L114.59 3.07C114.58 3.00 114.51 2.94 114.42 2.94C114.30 2.94 114.20 3.16 114.11 3.35C113.96 3.71 113.72 3.84 113.61 4.13L112.13 7.57C111.94 8.01 110.24 12.18 110.11 12.18L109.69 12.18C109.47 12.18 109.44 12.19 109.44 12.39ZM112.34 8.33C112.34 8.30 112.36 8.23 112.41 8.13L113.78 4.77C113.82 4.66 113.85 4.61 113.88 4.61C113.89 4.61 113.90 4.63 113.95 4.77L115.11 8.18C115.14 8.25 115.15 8.29 115.15 8.32C115.15 8.36 115.12 8.37 115.02 8.37L112.52 8.37C112.34 8.37 112.34 8.34 112.34 8.33ZM126.28 12.39C126.28 12.63 126.31 12.68 126.50 12.68C126.74 12.68 127.25 12.64 127.67 12.64C128.09 12.64 128.58 12.68 128.90 12.68C129.07 12.68 129.09 12.61 129.09 12.40C129.09 12.24 129.07 12.18 128.90 12.18L127.93 12.18C127.88 12.18 127.86 11.54 127.86 10.79C127.86 8.96 127.90 6.13 127.97 4.28C128.00 3.88 128.03 3.91 128.17 4.27L131.43 12.32C131.53 12.54 131.60 12.74 131.71 12.74C131.81 12.74 131.88 12.63 131.96 12.45C132.30 11.79 132.48 11.75 132.75 11.09L135.34 4.47C135.46 4.16 135.51 4.02 135.52 4.47C135.55 5.66 135.59 8.47 135.59 9.74C135.59 10.99 135.55 12.18 135.49 12.18L134.86 12.18C134.64 12.18 134.57 12.19 134.57 12.39C134.57 12.63 134.60 12.68 134.79 12.68C134.99 12.68 135.69 12.64 136.29 12.64C136.71 12.64 137.47 12.68 137.79 12.68C137.96 12.68 137.98 12.61 137.98 12.40C137.98 12.22 137.93 12.18 137.76 12.18L137.03 12.18C136.92 12.18 136.82 8.44 136.82 6.03L136.82 4.77C136.82 4.17 136.85 3.77 136.89 3.70L137.55 3.70C137.77 3.70 137.82 3.68 137.82 3.49C137.82 3.25 137.80 3.19 137.61 3.19C137.28 3.19 136.60 3.23 136.18 3.23L135.51 3.23C135.28 3.23 135.25 3.29 135.14 3.58L132.40 10.72C132.31 10.95 132.29 11.02 132.17 10.74L129.23 3.40C129.16 3.22 129.11 3.19 128.97 3.19C128.88 3.19 128.39 3.23 128.09 3.23C127.58 3.23 126.73 3.19 126.53 3.19C126.39 3.19 126.39 3.26 126.39 3.47C126.39 3.64 126.39 3.70 126.53 3.70L127.23 3.70C127.50 3.70 127.50 3.72 127.50 3.84C127.50 4.82 127.29 9.94 127.25 10.79C127.20 11.55 127.20 12.18 127.15 12.18L126.57 12.18C126.35 12.18 126.28 12.19 126.28 12.39ZM155.41 5.01C155.41 5.17 155.60 5.17 155.72 5.17C155.88 5.17 155.92 5.15 155.93 4.97L156.04 3.89C156.06 3.81 156.60 3.75 157.36 3.75L159.35 3.75C159.40 3.75 159.43 4.35 159.43 4.97C159.43 6.43 159.38 12.18 159.25 12.18L158.38 12.18C158.16 12.18 158.12 12.19 158.12 12.39C158.12 12.63 158.13 12.68 158.33 12.68C158.65 12.68 159.63 12.64 160.05 12.64C160.47 12.64 161.41 12.68 161.73 12.68C161.90 12.68 161.92 12.61 161.92 12.40C161.92 12.24 161.90 12.18 161.73 12.18L160.73 12.18C160.71 12.18 160.71 11.76 160.71 11.31C160.71 9.56 160.79 5.96 160.79 5.92C160.80 5.18 160.80 3.75 160.90 3.75L162.51 3.75C163.23 3.75 164.05 3.78 164.05 3.85C164.05 3.99 164.01 4.90 164.01 4.97C164.01 5.12 164.08 5.17 164.26 5.17C164.46 5.17 164.53 5.17 164.53 5.03C164.53 3.93 164.58 3.40 164.58 3.14C164.58 2.94 164.50 2.94 164.30 2.94C164.15 2.94 164.09 2.98 164.08 3.16C164.08 3.23 163.44 3.28 162.60 3.28L157.60 3.28C156.94 3.28 156.13 3.28 156.13 3.21L156.13 3.07C156.13 2.94 156.00 2.94 155.90 2.94C155.68 2.94 155.65 3.00 155.64 3.19C155.58 3.89 155.41 4.97 155.41 5.01ZM172.34 12.39C172.34 12.63 172.37 12.68 172.56 12.68C172.89 12.68 173.85 12.64 174.27 12.64C174.69 12.64 179.20 12.68 179.52 12.68C179.65 12.68 179.80 12.66 179.80 12.49C179.80 12.07 179.84 11.23 179.84 10.53C179.84 10.39 179.69 10.39 179.56 10.39C179.45 10.39 179.33 10.39 179.33 10.51C179.31 11.06 179.31 11.41 179.28 11.76C179.26 12.01 179.26 12.04 179.16 12.04C179.00 12.04 176.37 12.08 174.87 12.08C174.80 12.08 174.76 10.11 174.72 8.26C174.72 8.06 174.76 8.09 174.90 8.09L177.18 8.09C177.88 8.09 177.91 8.20 177.91 8.30L177.91 9.00C177.91 9.14 178.09 9.14 178.21 9.14C178.30 9.14 178.43 9.13 178.43 9.02C178.43 8.83 178.40 8.33 178.40 7.83C178.40 7.32 178.43 6.83 178.43 6.71C178.43 6.59 178.29 6.58 178.19 6.58C178.08 6.58 177.91 6.59 177.91 6.72L177.91 7.45C177.91 7.62 177.46 7.63 177.18 7.63L174.85 7.63C174.73 7.63 174.72 7.63 174.72 7.45C174.71 6.75 174.69 6.06 174.69 5.46C174.69 5.12 174.69 3.71 174.78 3.71C176.01 3.71 178.51 3.75 178.51 3.81C178.51 3.99 178.47 4.83 178.47 4.89C178.47 5.04 178.54 5.10 178.72 5.10C178.92 5.10 178.99 5.08 178.99 4.94C178.99 3.85 179.05 3.36 179.05 3.09C179.05 2.91 178.96 2.90 178.77 2.90C178.57 2.90 178.57 2.95 178.54 3.11C178.53 3.25 178.60 3.25 177.69 3.25C177.07 3.25 174.93 3.29 174.16 3.29C173.67 3.29 172.73 3.25 172.63 3.25C172.51 3.25 172.45 3.30 172.45 3.49C172.45 3.72 172.52 3.74 172.69 3.74L173.35 3.74C173.40 3.74 173.47 4.79 173.47 5.71C173.47 5.80 173.53 8.27 173.53 9.83L173.53 11.17C173.53 11.84 173.50 12.18 173.47 12.18L172.62 12.18C172.40 12.18 172.34 12.21 172.34 12.39ZM187.88 7.91C187.88 11.31 190.25 12.87 192.84 12.87C194.61 12.87 196.39 11.90 196.43 11.59C196.60 10.29 196.66 9.70 196.66 9.66C196.66 9.56 196.62 9.52 196.45 9.51C196.39 9.51 196.34 9.49 196.29 9.49C196.18 9.49 196.13 9.53 196.10 9.70L195.92 11.33C195.90 11.45 194.80 12.24 193.23 12.24C191.10 12.24 189.39 10.29 189.39 7.94C189.39 5.42 190.82 3.54 192.82 3.54C194.67 3.54 196.01 5.01 196.01 5.17C196.01 5.29 195.96 6.40 195.96 6.45C195.96 6.59 196.00 6.64 196.27 6.64C196.46 6.64 196.53 6.62 196.53 6.44C196.53 5.73 196.59 3.92 196.59 3.67C196.59 3.47 196.48 3.44 196.27 3.44C196.04 3.44 196.01 3.50 196.01 3.67L196.01 4.05C196.01 4.16 195.97 4.16 195.85 4.06C195.57 3.86 194.59 3.04 192.92 3.04C190.08 3.04 187.88 4.96 187.88 7.91ZM205.04 12.39C205.04 12.63 205.04 12.68 205.24 12.68C205.56 12.68 206.50 12.64 206.92 12.64C207.34 12.64 208.17 12.68 208.49 12.68C208.66 12.68 208.66 12.61 208.66 12.40C208.66 12.24 208.66 12.18 208.49 12.18L207.56 12.18C207.48 12.18 207.44 9.93 207.44 8.20C207.44 8.01 207.44 8.01 207.56 8.01L212.80 8.01C212.87 8.01 212.88 8.01 212.88 8.18L212.88 9.91C212.88 11.05 212.87 12.18 212.81 12.18L212.04 12.18C211.82 12.18 211.78 12.19 211.78 12.39C211.78 12.63 211.79 12.68 211.99 12.68C212.31 12.68 213.15 12.64 213.57 12.64C213.99 12.64 214.58 12.68 214.90 12.68C215.07 12.68 215.08 12.61 215.08 12.40C215.08 12.24 215.07 12.18 214.90 12.18L214.16 12.18C214.12 12.18 214.10 9.27 214.10 7.04C214.10 5.40 214.10 3.70 214.14 3.70L214.76 3.70C214.98 3.70 215.03 3.68 215.03 3.49C215.03 3.25 215.01 3.19 214.82 3.19C214.68 3.19 214.05 3.23 213.46 3.23C212.79 3.23 212.18 3.19 211.96 3.19C211.76 3.19 211.74 3.22 211.74 3.44C211.74 3.67 211.81 3.70 211.97 3.70L212.77 3.70C212.83 3.70 212.88 4.79 212.88 5.71L212.88 7.42C212.88 7.59 212.88 7.59 212.72 7.59L207.61 7.59C207.44 7.59 207.44 7.59 207.44 7.38C207.44 6.96 207.42 6.23 207.42 5.53C207.42 4.66 207.44 3.70 207.49 3.70L208.26 3.70C208.49 3.70 208.53 3.68 208.53 3.49C208.53 3.25 208.52 3.19 208.32 3.19C208.00 3.19 207.41 3.23 206.81 3.23C206.22 3.23 205.73 3.19 205.51 3.19C205.32 3.19 205.23 3.21 205.23 3.44C205.23 3.68 205.34 3.70 205.51 3.70L206.12 3.70C206.18 3.70 206.19 5.59 206.19 7.18L206.19 8.61C206.19 10.08 206.18 12.18 206.11 12.18L205.30 12.18C205.07 12.18 205.04 12.19 205.04 12.39Z"></path></g></svg>