<svg id="svg" version="1.1" xmlns="http://www.w3.org/2000/svg" xmlns:xlink="http://www.w3.org/1999/xlink" width="400" height="400" viewBox="0, 0, 400,400"><g id="svgg"><path id="path0" d="M140.752 20.046 C 137.428 20.431,135.912 20.883,133.704 22.148 C 132.787 22.673,131.954 23.092,131.852 23.080 C 131.750 23.067,131.500 23.114,131.296 23.184 C 131.093 23.254,130.509 23.369,130.000 23.441 C 128.765 23.614,126.514 24.609,125.135 25.591 C 124.520 26.029,123.071 26.851,121.916 27.416 C 120.760 27.982,119.481 28.761,119.074 29.148 C 118.667 29.534,117.250 30.581,115.926 31.474 C 114.602 32.366,113.462 33.235,113.394 33.405 C 113.325 33.574,112.521 34.227,111.608 34.855 C 108.266 37.154,53.417 92.534,52.222 94.815 C 51.955 95.324,51.079 96.491,50.275 97.407 C 49.471 98.324,48.479 99.741,48.070 100.556 C 47.662 101.370,46.856 102.537,46.279 103.148 C 45.658 103.807,44.842 105.457,44.274 107.202 C 43.748 108.821,43.098 110.404,42.832 110.721 C 41.482 112.322,40.951 114.255,39.929 121.296 C 39.419 124.803,39.298 135.808,39.741 138.333 C 39.884 139.148,40.173 141.315,40.384 143.148 C 40.805 146.809,41.204 148.141,42.381 149.815 C 42.810 150.426,43.727 152.343,44.418 154.074 C 45.109 155.806,46.048 157.722,46.504 158.333 C 46.960 158.944,47.707 160.248,48.164 161.230 C 48.621 162.212,49.371 163.262,49.831 163.563 C 50.290 163.864,51.128 164.811,51.693 165.666 C 53.615 168.580,57.953 173.124,71.527 186.447 C 75.453 190.301,75.023 191.925,68.573 197.593 C 68.341 197.796,67.412 198.713,66.508 199.630 C 65.605 200.546,64.670 201.487,64.431 201.720 C 59.115 206.903,53.958 212.678,51.783 215.884 C 51.007 217.027,49.830 218.663,49.168 219.518 C 47.167 222.100,45.252 225.273,44.630 227.037 C 44.307 227.954,43.302 230.204,42.397 232.037 C 41.150 234.563,40.700 235.954,40.540 237.778 C 40.424 239.102,40.153 241.019,39.938 242.037 C 39.406 244.559,39.198 255.225,39.628 257.963 C 39.819 259.185,40.054 260.685,40.148 261.296 C 40.242 261.907,40.426 263.482,40.557 264.795 C 40.727 266.511,41.197 267.969,42.225 269.980 C 43.013 271.519,44.092 273.944,44.624 275.368 C 45.155 276.793,45.991 278.377,46.479 278.887 C 46.968 279.397,47.634 280.451,47.959 281.229 C 48.284 282.006,49.172 283.340,49.934 284.192 C 50.696 285.044,51.963 286.549,52.751 287.536 C 54.223 289.382,65.507 301.043,71.111 306.512 C 72.843 308.201,82.093 317.443,91.667 327.050 C 108.118 343.557,115.430 350.453,117.759 351.657 C 118.320 351.947,119.055 352.606,119.393 353.122 C 120.078 354.168,121.533 355.013,123.843 355.708 C 124.693 355.964,126.163 356.765,127.111 357.488 C 128.417 358.485,129.444 358.908,131.361 359.237 C 132.751 359.476,134.982 360.172,136.319 360.784 C 137.655 361.396,138.988 361.933,139.282 361.977 C 139.575 362.022,140.031 362.193,140.296 362.359 C 141.020 362.810,159.499 362.777,160.476 362.322 C 163.997 360.682,166.734 359.657,168.148 359.451 C 170.818 359.061,172.315 358.510,173.744 357.392 C 174.479 356.816,175.979 356.052,177.077 355.693 C 178.273 355.302,179.743 354.427,180.741 353.512 C 181.657 352.671,183.052 351.595,183.840 351.120 C 184.627 350.645,186.012 349.615,186.918 348.832 C 187.823 348.048,188.712 347.407,188.894 347.407 C 189.075 347.407,190.035 346.616,191.027 345.648 C 192.018 344.681,193.250 343.594,193.764 343.233 C 194.278 342.872,194.904 342.192,195.156 341.721 C 195.408 341.251,196.098 340.580,196.690 340.230 C 197.282 339.881,198.300 338.811,198.951 337.853 C 200.978 334.874,204.309 334.444,206.188 336.917 C 206.757 337.666,207.608 338.624,208.080 339.047 C 208.552 339.469,210.685 341.523,212.821 343.611 C 214.958 345.699,216.867 347.407,217.065 347.407 C 217.262 347.407,218.129 348.054,218.990 348.844 C 219.851 349.634,221.350 350.781,222.321 351.394 C 223.292 352.007,224.432 352.947,224.854 353.484 C 225.568 354.392,227.778 355.821,227.778 355.375 C 227.778 355.016,230.527 356.314,231.296 357.037 C 232.407 358.080,235.102 359.139,237.362 359.420 C 238.457 359.556,240.457 360.222,241.806 360.899 C 243.155 361.576,244.842 362.256,245.554 362.411 C 247.682 362.872,264.597 362.735,265.505 362.249 C 265.940 362.016,266.296 361.904,266.296 362.000 C 266.296 362.096,267.505 361.617,268.981 360.936 C 270.458 360.255,272.500 359.579,273.519 359.433 C 275.832 359.102,277.369 358.482,279.366 357.075 C 280.224 356.470,281.651 355.786,282.538 355.556 C 283.611 355.277,284.663 354.608,285.688 353.554 C 286.534 352.683,287.683 351.731,288.242 351.438 C 288.801 351.145,290.362 349.993,291.711 348.879 C 295.389 345.839,351.207 289.969,353.028 287.504 C 353.895 286.331,355.160 284.736,355.838 283.962 C 356.516 283.187,357.261 282.103,357.493 281.554 C 357.725 281.005,358.450 279.972,359.103 279.259 C 359.818 278.479,360.537 277.097,360.909 275.789 C 361.250 274.594,361.933 272.974,362.427 272.191 C 363.782 270.045,364.814 267.045,364.815 265.253 C 364.815 264.374,364.965 263.374,365.149 263.031 C 365.333 262.688,365.530 261.740,365.588 260.926 C 365.646 260.111,365.839 259.249,366.016 259.011 C 366.474 258.394,366.113 243.520,365.585 241.296 C 365.344 240.278,365.001 238.444,364.823 237.222 C 364.375 234.146,363.814 232.417,362.757 230.859 C 362.260 230.127,361.508 228.371,361.087 226.957 C 360.610 225.355,359.909 223.955,359.224 223.239 C 358.621 222.607,357.631 221.223,357.024 220.163 C 356.418 219.102,355.672 218.028,355.367 217.775 C 355.061 217.521,354.242 216.377,353.546 215.231 C 352.850 214.085,351.873 212.793,351.374 212.359 C 350.876 211.926,350.092 210.902,349.632 210.083 C 349.172 209.265,348.405 208.417,347.928 208.200 C 347.452 207.983,346.684 207.228,346.222 206.524 C 345.760 205.819,344.913 204.965,344.341 204.627 C 343.768 204.289,342.948 203.476,342.519 202.821 C 342.089 202.165,341.102 201.172,340.325 200.614 C 339.548 200.055,338.637 199.132,338.301 198.563 C 337.964 197.993,337.042 197.128,336.252 196.639 C 335.461 196.151,334.815 195.661,334.815 195.552 C 334.815 195.442,333.970 194.481,332.938 193.415 C 331.436 191.865,331.111 191.313,331.309 190.647 C 331.705 189.310,333.323 187.127,334.962 185.717 C 335.798 184.999,336.648 184.249,336.852 184.052 C 339.513 181.473,343.961 177.024,344.579 176.324 C 345.014 175.829,345.932 174.913,346.618 174.287 C 347.304 173.660,348.138 172.825,348.470 172.431 C 348.802 172.037,349.838 170.870,350.773 169.838 C 351.707 168.807,353.033 167.130,353.720 166.111 C 354.406 165.093,355.336 163.967,355.785 163.610 C 356.234 163.252,356.970 162.199,357.420 161.269 C 357.871 160.339,358.626 159.119,359.099 158.557 C 359.571 157.995,360.362 156.465,360.856 155.157 C 361.350 153.848,362.276 151.816,362.914 150.640 C 363.552 149.464,364.074 148.182,364.074 147.791 C 364.074 147.400,364.241 146.978,364.444 146.852 C 364.648 146.726,364.815 145.726,364.815 144.630 C 364.815 143.533,364.947 142.555,365.108 142.455 C 365.269 142.356,365.442 141.656,365.493 140.899 C 365.544 140.143,365.733 139.249,365.914 138.912 C 366.332 138.130,366.423 123.085,366.011 122.830 C 365.842 122.726,365.661 121.933,365.610 121.069 C 365.559 120.205,365.405 119.319,365.267 119.101 C 365.130 118.882,364.904 117.787,364.767 116.667 C 364.394 113.631,363.876 111.957,362.840 110.439 C 361.994 109.199,361.688 108.326,360.941 105.032 C 360.806 104.438,360.032 103.271,359.221 102.439 C 357.805 100.986,355.662 97.950,353.704 94.626 C 352.535 92.641,354.826 94.994,322.249 62.315 C 306.968 46.986,294.240 34.444,293.964 34.444 C 293.688 34.444,293.058 34.012,292.565 33.483 C 292.071 32.955,290.917 32.085,290.000 31.550 C 289.083 31.016,287.470 29.880,286.415 29.026 C 285.361 28.173,284.111 27.351,283.638 27.202 C 283.165 27.052,282.111 26.499,281.296 25.974 C 279.162 24.598,278.531 24.294,276.667 23.741 C 275.750 23.469,274.750 23.172,274.444 23.081 C 274.139 22.990,273.889 22.951,273.889 22.995 C 273.889 23.039,272.866 22.543,271.616 21.892 C 265.625 18.774,246.180 18.756,239.283 21.861 C 237.485 22.671,235.751 23.333,235.431 23.333 C 234.879 23.333,233.930 23.662,231.852 24.572 C 231.343 24.795,230.229 25.441,229.378 26.007 C 228.526 26.574,227.635 27.037,227.398 27.037 C 226.873 27.037,224.959 28.339,223.721 29.540 C 223.221 30.024,222.087 30.751,221.202 31.154 C 220.317 31.557,218.976 32.435,218.222 33.105 C 217.469 33.775,216.310 34.636,215.648 35.019 C 214.986 35.402,214.444 35.816,214.444 35.939 C 214.444 36.336,212.438 38.385,211.389 39.060 C 210.829 39.420,210.370 39.906,210.370 40.139 C 210.370 40.373,209.842 40.979,209.197 41.486 C 207.694 42.666,206.652 43.735,205.816 44.955 C 204.651 46.655,200.764 46.403,199.371 44.537 C 198.800 43.773,198.084 42.957,197.778 42.723 C 196.565 41.795,195.667 40.871,194.865 39.722 C 194.402 39.060,193.846 38.519,193.628 38.519 C 193.228 38.519,191.769 37.092,191.223 36.167 C 191.060 35.890,190.179 35.196,189.267 34.625 C 188.354 34.054,187.298 33.194,186.921 32.715 C 186.544 32.235,185.491 31.504,184.582 31.089 C 183.673 30.675,182.588 29.995,182.170 29.578 C 181.753 29.161,180.303 28.235,178.947 27.521 C 177.591 26.807,176.148 25.927,175.741 25.566 C 174.936 24.851,171.095 23.333,170.092 23.333 C 169.750 23.333,168.131 22.683,166.494 21.889 C 162.146 19.777,150.358 18.934,140.752 20.046 M155.076 54.053 C 158.219 54.649,163.739 58.285,167.679 62.355 C 168.243 62.937,169.098 63.770,169.580 64.207 C 170.063 64.643,170.979 65.563,171.617 66.251 C 172.256 66.939,173.101 67.773,173.497 68.103 C 177.041 71.063,177.696 73.825,175.324 75.812 C 174.535 76.473,173.769 77.144,173.623 77.303 C 173.311 77.643,168.216 83.027,167.845 83.408 C 167.706 83.551,159.400 91.885,149.388 101.927 C 139.375 111.969,130.523 120.852,129.717 121.667 C 128.910 122.481,127.969 123.699,127.624 124.372 C 127.280 125.044,126.679 125.914,126.289 126.303 C 124.184 128.409,122.577 134.110,123.739 135.355 C 123.821 135.443,125.306 137.048,127.037 138.922 C 129.203 141.266,207.026 219.212,216.397 228.423 C 220.334 232.293,224.204 236.804,225.026 238.482 C 225.584 239.623,226.626 241.430,227.341 242.499 C 229.463 245.673,229.478 254.309,227.366 256.985 C 226.942 257.523,226.113 259.021,225.526 260.315 C 224.938 261.608,223.746 263.420,222.877 264.341 C 222.008 265.262,220.380 266.974,219.259 268.145 C 218.139 269.316,217.056 270.458,216.852 270.682 C 216.648 270.906,210.648 276.919,203.519 284.045 C 196.389 291.171,190.389 297.169,190.185 297.374 C 189.981 297.579,186.648 300.910,182.778 304.778 C 178.907 308.645,175.524 312.027,175.260 312.294 C 174.178 313.382,165.648 321.550,164.444 322.649 C 163.731 323.300,161.840 324.479,160.240 325.270 C 158.641 326.061,157.002 327.015,156.598 327.392 C 154.586 329.266,145.455 328.775,143.057 326.663 C 142.146 325.862,140.773 325.095,139.821 324.855 C 138.787 324.595,137.432 323.801,136.213 322.742 C 131.003 318.219,79.427 266.303,77.930 264.074 C 77.040 262.750,76.050 261.310,75.730 260.873 C 74.674 259.434,72.913 252.229,73.163 250.370 C 73.549 247.498,75.489 241.823,76.563 240.425 C 77.129 239.689,78.031 238.417,78.568 237.599 C 81.119 233.707,91.401 223.998,92.680 224.273 C 94.589 224.684,95.737 225.410,97.083 227.055 C 98.325 228.573,102.777 233.163,104.480 234.683 C 104.970 235.119,107.394 237.536,109.868 240.053 C 112.342 242.570,114.675 244.893,115.053 245.215 C 115.431 245.537,116.256 246.371,116.887 247.067 C 117.517 247.764,118.600 248.863,119.294 249.511 C 119.988 250.159,122.596 252.742,125.090 255.252 C 127.585 257.762,129.835 260.000,130.090 260.225 C 130.346 260.451,131.237 261.368,132.070 262.263 C 132.902 263.157,134.152 264.440,134.847 265.113 C 135.542 265.787,137.278 267.486,138.704 268.890 C 142.516 272.643,145.665 275.309,147.083 275.984 C 147.771 276.311,149.114 276.925,150.069 277.347 L 151.804 278.116 154.143 277.171 C 157.473 275.827,157.894 275.461,170.000 263.399 C 176.009 257.412,181.221 252.305,181.581 252.050 C 182.164 251.639,182.190 251.369,181.820 249.644 L 181.404 247.700 130.528 196.839 C 83.277 149.600,77.037 143.144,77.037 141.499 C 77.037 141.286,76.890 141.111,76.709 141.111 C 76.235 141.111,75.123 139.304,74.785 137.985 C 74.626 137.362,74.151 135.519,73.729 133.889 C 71.925 126.915,75.585 118.628,83.675 111.362 C 84.169 110.918,85.002 110.074,85.527 109.485 C 86.052 108.896,87.050 107.896,87.744 107.263 C 88.438 106.629,89.355 105.714,89.781 105.229 C 90.207 104.744,91.889 103.037,93.519 101.434 C 97.011 98.001,96.756 98.255,98.118 96.852 C 98.712 96.241,99.586 95.383,100.062 94.946 C 100.537 94.509,101.430 93.592,102.047 92.909 C 102.664 92.226,103.460 91.417,103.816 91.111 C 104.172 90.806,105.771 89.222,107.368 87.593 C 108.966 85.963,110.670 84.274,111.155 83.840 C 111.640 83.406,112.538 82.489,113.151 81.803 C 113.763 81.117,114.705 80.139,115.243 79.630 C 115.782 79.120,116.750 78.204,117.396 77.593 C 118.042 76.981,118.933 76.079,119.377 75.588 C 119.822 75.096,121.493 73.429,123.091 71.884 C 124.689 70.338,126.439 68.592,126.980 68.003 C 127.521 67.415,128.531 66.415,129.226 65.781 C 129.920 65.148,130.837 64.221,131.263 63.721 C 131.689 63.221,132.434 62.471,132.919 62.054 C 133.403 61.637,134.588 60.546,135.551 59.630 C 136.514 58.713,138.118 57.553,139.114 57.051 C 140.111 56.549,141.489 55.721,142.178 55.211 C 144.021 53.845,150.778 53.238,155.076 54.053 M265.486 56.348 C 267.663 57.628,269.596 58.922,269.782 59.226 C 269.967 59.529,270.467 60.091,270.893 60.474 C 273.436 62.765,326.727 116.088,327.019 116.634 C 327.215 117.000,327.937 117.972,328.624 118.794 C 329.313 119.619,330.159 121.261,330.512 122.459 C 330.864 123.653,331.482 125.355,331.886 126.242 C 333.298 129.342,331.971 137.345,329.456 140.899 C 329.157 141.321,328.199 142.674,327.327 143.904 C 325.598 146.343,320.155 152.067,316.220 155.585 L 313.736 157.805 311.525 156.689 C 310.204 156.022,309.214 155.255,309.064 154.783 C 308.861 154.143,306.224 151.197,303.392 148.446 C 303.119 148.180,301.118 146.199,298.946 144.043 C 296.774 141.887,294.831 140.053,294.628 139.969 C 294.425 139.884,293.786 139.182,293.208 138.408 C 292.630 137.634,291.591 136.634,290.898 136.186 C 290.205 135.737,289.637 135.232,289.634 135.062 C 289.632 134.892,286.421 131.591,282.500 127.725 C 278.579 123.859,275.204 120.525,275.000 120.316 C 268.447 113.590,265.068 110.329,264.180 109.869 C 263.571 109.555,262.810 108.896,262.489 108.405 C 262.167 107.915,261.184 107.160,260.304 106.728 C 259.424 106.297,257.815 105.436,256.729 104.817 C 255.642 104.197,254.389 103.660,253.944 103.623 C 252.726 103.523,247.509 106.602,245.336 108.704 C 239.167 114.673,237.532 116.279,236.992 116.901 C 236.662 117.281,235.828 118.104,235.140 118.729 C 234.452 119.355,233.531 120.271,233.094 120.766 C 232.658 121.262,230.199 123.709,227.632 126.205 C 222.618 131.079,222.631 131.059,223.624 132.535 C 223.988 133.076,224.501 133.947,224.763 134.471 C 225.025 134.995,225.750 135.828,226.374 136.323 C 226.998 136.818,227.861 137.633,228.291 138.134 C 228.722 138.636,229.546 139.498,230.123 140.049 C 230.699 140.600,231.366 141.243,231.604 141.477 C 233.375 143.217,235.415 145.234,235.636 145.464 C 238.984 148.945,246.005 155.940,246.382 156.171 C 246.661 156.342,247.264 157.018,247.722 157.675 C 248.179 158.331,249.007 159.136,249.561 159.463 C 250.114 159.790,250.940 160.627,251.397 161.323 C 251.853 162.019,252.807 162.964,253.516 163.424 C 254.225 163.883,254.808 164.427,254.810 164.633 C 254.813 164.838,255.493 165.588,256.322 166.299 C 257.150 167.011,258.109 167.918,258.451 168.315 C 258.794 168.712,259.574 169.503,260.185 170.073 C 260.796 170.643,261.463 171.285,261.667 171.499 C 262.105 171.962,268.947 178.796,269.356 179.180 C 269.510 179.325,270.294 180.111,271.096 180.926 C 271.899 181.741,272.772 182.627,273.037 182.896 C 273.302 183.164,274.269 184.123,275.185 185.027 C 276.102 185.930,276.971 186.794,277.118 186.946 C 280.466 190.427,287.487 197.422,287.864 197.653 C 288.142 197.823,288.745 198.500,289.203 199.156 C 289.661 199.813,290.494 200.620,291.053 200.951 C 291.613 201.281,292.451 202.107,292.916 202.785 C 293.380 203.463,294.315 204.398,294.993 204.862 C 295.671 205.327,296.486 206.148,296.804 206.686 C 297.123 207.225,297.930 208.043,298.599 208.505 C 299.268 208.967,300.285 210.011,300.859 210.825 C 301.434 211.639,302.184 212.387,302.526 212.486 C 302.868 212.586,303.648 213.344,304.259 214.170 C 304.870 214.997,305.701 215.855,306.105 216.077 C 306.510 216.300,307.090 216.815,307.395 217.222 C 307.699 217.630,309.369 219.337,311.104 221.017 C 312.839 222.696,314.426 224.249,314.630 224.468 C 314.833 224.686,315.750 225.605,316.667 226.508 C 317.583 227.412,318.500 228.332,318.704 228.553 C 318.907 228.774,320.741 230.656,322.778 232.735 C 329.937 240.040,333.677 248.061,332.412 253.395 C 331.513 257.179,329.997 261.307,329.168 262.224 C 328.709 262.732,327.892 263.828,327.352 264.658 C 326.496 265.975,274.934 317.847,270.170 322.184 C 269.186 323.080,267.287 324.308,265.950 324.914 C 264.613 325.519,262.992 326.477,262.349 327.041 C 259.815 329.261,251.321 329.016,248.146 326.631 C 247.088 325.836,245.980 325.185,245.685 325.185 C 244.112 325.185,241.489 323.142,235.064 316.914 C 232.788 314.708,230.647 312.650,230.306 312.342 C 229.551 311.660,228.737 308.469,229.060 307.453 C 229.239 306.886,241.941 293.996,257.855 278.230 C 258.118 277.970,260.732 275.345,263.665 272.397 C 266.597 269.449,269.139 267.037,269.313 267.037 C 269.487 267.037,269.630 266.827,269.630 266.571 C 269.630 266.314,270.229 265.606,270.962 264.996 C 271.695 264.387,272.570 263.557,272.906 263.152 C 273.243 262.747,274.367 261.580,275.404 260.560 C 276.441 259.539,277.638 258.120,278.064 257.407 C 278.491 256.694,279.164 255.765,279.560 255.341 C 282.033 252.700,282.844 249.680,281.759 247.156 C 280.713 244.722,274.817 238.638,230.185 193.926 C 181.815 145.469,181.635 145.283,179.922 141.880 C 179.350 140.744,178.480 139.267,177.988 138.598 C 176.341 136.358,176.227 128.103,177.813 125.877 C 178.216 125.310,179.108 123.632,179.795 122.146 C 180.482 120.660,181.576 118.956,182.226 118.359 C 182.877 117.762,183.802 116.650,184.283 115.888 C 184.764 115.127,185.456 114.408,185.821 114.292 C 186.186 114.177,186.818 113.625,187.224 113.066 C 187.630 112.507,188.355 111.688,188.833 111.247 C 189.985 110.184,193.380 106.838,194.574 105.589 C 194.968 105.177,197.737 102.406,198.180 101.981 C 198.361 101.808,199.057 101.083,199.729 100.370 C 200.400 99.657,201.277 98.802,201.678 98.470 C 202.079 98.138,202.920 97.304,203.546 96.618 C 204.172 95.932,205.089 95.013,205.583 94.577 C 206.077 94.141,206.905 93.307,207.422 92.725 C 207.939 92.143,208.649 91.417,209.000 91.111 C 209.618 90.572,211.718 88.491,213.423 86.727 C 213.883 86.251,214.726 85.418,215.297 84.875 C 215.868 84.333,216.701 83.498,217.149 83.021 C 217.597 82.544,218.434 81.711,219.010 81.169 C 219.586 80.628,220.503 79.703,221.047 79.115 C 221.592 78.526,222.605 77.526,223.300 76.892 C 223.994 76.259,224.828 75.420,225.152 75.028 C 225.476 74.636,226.157 73.929,226.667 73.457 C 228.260 71.980,229.042 71.213,230.061 70.126 C 230.603 69.547,231.437 68.698,231.913 68.238 C 232.617 67.557,234.298 65.887,236.013 64.163 C 236.163 64.012,236.867 63.306,237.578 62.593 C 240.311 59.849,242.575 57.992,244.312 57.070 C 245.305 56.543,246.662 55.722,247.327 55.246 C 249.010 54.042,251.272 53.716,256.783 53.880 L 261.528 54.022 265.486 56.348 " stroke="none" fill="#0f0f0f" fill-rule="evenodd"></path><path id="path1" d="M0.000 200.000 L 0.000 400.000 200.000 400.000 L 400.000 400.000 400.000 200.000 L 400.000 0.000 200.000 0.000 L 0.000 0.000 0.000 200.000 M162.013 19.620 C 163.018 19.831,165.019 20.586,166.460 21.298 C 167.901 22.010,169.374 22.593,169.733 22.593 C 170.608 22.593,174.793 24.310,175.526 24.971 C 175.848 25.260,177.111 26.009,178.333 26.635 C 179.556 27.261,181.056 28.207,181.667 28.738 C 182.278 29.268,183.611 30.126,184.630 30.643 C 185.648 31.161,186.961 32.145,187.547 32.829 C 188.133 33.514,188.844 34.074,189.127 34.074 C 189.410 34.074,190.097 34.597,190.654 35.235 C 191.211 35.874,192.063 36.749,192.548 37.180 C 194.068 38.530,194.975 39.450,195.741 40.414 C 196.148 40.928,196.855 41.601,197.312 41.910 C 197.768 42.220,198.644 43.166,199.258 44.014 C 200.720 46.032,204.593 46.369,205.816 44.585 C 206.499 43.588,207.388 42.635,208.934 41.244 C 209.418 40.807,210.259 39.974,210.803 39.392 C 211.346 38.810,212.262 37.892,212.840 37.353 C 213.417 36.813,214.375 35.855,214.969 35.223 C 215.563 34.591,216.240 34.074,216.474 34.074 C 216.707 34.074,217.388 33.558,217.986 32.928 C 218.585 32.298,219.991 31.314,221.111 30.743 C 222.231 30.171,223.565 29.252,224.074 28.700 C 224.583 28.147,225.986 27.215,227.191 26.628 C 228.395 26.041,229.645 25.329,229.968 25.047 C 230.903 24.230,232.593 23.500,235.185 22.792 C 236.509 22.431,238.509 21.675,239.630 21.111 C 245.500 18.160,266.292 18.133,271.655 21.070 C 272.680 21.632,274.350 22.300,275.365 22.554 C 277.556 23.104,280.741 24.429,280.741 24.792 C 280.741 25.109,283.615 26.666,284.202 26.668 C 284.437 26.668,285.213 27.179,285.926 27.802 C 287.465 29.149,290.217 31.111,290.565 31.111 C 290.701 31.111,291.570 31.778,292.495 32.593 C 293.421 33.407,294.391 34.074,294.650 34.074 C 294.910 34.074,295.678 34.674,296.358 35.408 C 297.037 36.142,297.986 37.100,298.467 37.538 C 298.947 37.975,299.780 38.808,300.318 39.388 C 300.856 39.968,301.700 40.801,302.194 41.239 C 302.688 41.678,303.521 42.518,304.046 43.106 C 304.571 43.694,305.393 44.527,305.874 44.958 C 306.355 45.388,307.188 46.215,307.726 46.795 C 308.264 47.375,309.099 48.208,309.582 48.647 C 310.065 49.086,311.732 50.755,313.286 52.358 C 314.840 53.960,316.504 55.627,316.985 56.061 C 317.466 56.496,318.299 57.333,318.837 57.921 C 319.375 58.508,320.205 59.342,320.681 59.773 C 321.158 60.203,322.075 61.109,322.718 61.784 C 323.362 62.460,324.374 63.460,324.966 64.007 C 325.559 64.553,326.559 65.563,327.188 66.251 C 327.818 66.939,328.651 67.773,329.038 68.103 C 329.426 68.433,330.176 69.185,330.705 69.773 C 331.234 70.360,332.056 71.194,332.532 71.624 C 333.007 72.055,333.757 72.798,334.198 73.275 C 334.639 73.752,335.458 74.585,336.018 75.127 C 341.480 80.409,349.838 88.883,350.480 89.789 C 350.924 90.415,351.727 91.299,352.265 91.755 C 352.804 92.211,353.507 93.128,353.827 93.792 C 354.148 94.456,355.166 96.000,356.090 97.222 C 357.014 98.444,357.772 99.612,357.774 99.816 C 357.776 100.020,358.611 101.070,359.630 102.150 C 360.648 103.229,361.481 104.459,361.481 104.883 C 361.481 106.237,362.330 108.657,363.340 110.185 C 364.452 111.868,365.398 115.070,365.747 118.333 C 365.877 119.556,366.143 121.072,366.336 121.704 C 366.807 123.244,366.854 137.716,366.391 138.889 C 366.190 139.398,365.914 140.815,365.778 142.037 C 365.357 145.823,364.783 147.873,363.453 150.337 C 362.748 151.642,361.768 153.783,361.274 155.094 C 360.781 156.405,359.979 157.950,359.493 158.528 C 359.007 159.106,358.241 160.339,357.791 161.269 C 357.341 162.199,356.605 163.252,356.155 163.610 C 355.706 163.967,354.777 165.093,354.090 166.111 C 353.403 167.130,352.077 168.807,351.143 169.838 C 350.209 170.870,349.177 172.037,348.850 172.431 C 348.523 172.825,347.813 173.464,347.272 173.851 C 346.732 174.237,345.944 175.112,345.522 175.795 C 345.100 176.478,344.611 177.037,344.435 177.037 C 343.710 177.037,332.573 188.474,332.029 189.778 C 331.421 191.233,332.111 193.333,333.198 193.333 C 333.443 193.333,333.985 193.885,334.402 194.560 C 334.819 195.235,335.582 196.013,336.098 196.290 C 336.615 196.566,337.037 196.930,337.037 197.100 C 337.037 197.269,337.271 197.407,337.556 197.407 C 337.841 197.407,338.414 197.982,338.829 198.685 C 339.243 199.387,340.148 200.333,340.838 200.786 C 341.529 201.239,342.449 202.150,342.882 202.811 C 343.316 203.472,344.138 204.289,344.711 204.627 C 345.284 204.965,346.130 205.819,346.592 206.524 C 347.054 207.228,347.822 207.983,348.299 208.200 C 348.776 208.417,349.512 209.211,349.936 209.965 C 350.359 210.719,351.071 211.660,351.517 212.056 C 351.963 212.453,353.061 213.861,353.957 215.185 C 354.852 216.509,356.149 218.426,356.838 219.444 C 357.527 220.463,358.700 221.996,359.446 222.851 C 360.327 223.862,360.996 225.151,361.358 226.539 C 361.664 227.712,362.276 229.326,362.717 230.125 C 363.158 230.924,363.726 231.953,363.980 232.410 C 367.788 239.277,367.465 263.394,363.458 271.296 C 362.528 273.130,361.522 275.463,361.221 276.481 C 360.921 277.500,360.208 278.833,359.638 279.444 C 359.068 280.056,358.323 281.107,357.983 281.781 C 357.644 282.456,356.820 283.622,356.153 284.374 C 355.487 285.126,354.381 286.574,353.696 287.593 C 352.457 289.436,295.802 346.354,293.333 348.235 C 292.620 348.779,291.372 349.815,290.560 350.538 C 289.747 351.260,288.898 351.852,288.673 351.852 C 288.448 351.852,287.400 352.680,286.345 353.692 C 285.114 354.872,283.873 355.681,282.885 355.947 C 282.038 356.175,280.396 357.006,279.237 357.793 C 277.691 358.843,276.452 359.344,274.584 359.676 C 273.183 359.924,270.787 360.704,269.259 361.408 C 265.685 363.056,261.592 363.477,252.236 363.162 L 245.398 362.931 242.218 361.500 C 240.469 360.712,238.213 359.951,237.204 359.808 C 235.058 359.503,232.361 358.407,231.296 357.407 C 230.527 356.685,227.778 355.386,227.778 355.745 C 227.778 356.179,225.578 354.775,224.893 353.904 C 224.493 353.395,223.155 352.267,221.921 351.397 C 217.651 348.387,216.175 347.213,213.997 345.093 C 212.794 343.921,211.681 342.963,211.523 342.963 C 211.365 342.963,211.001 342.523,210.713 341.984 C 210.425 341.446,209.604 340.637,208.889 340.185 C 208.174 339.734,207.340 338.883,207.035 338.293 C 205.293 334.924,200.623 334.922,198.890 338.290 C 198.588 338.877,197.756 339.792,197.041 340.324 C 196.326 340.857,195.607 341.502,195.443 341.759 C 194.831 342.722,193.479 343.968,192.315 344.645 C 191.653 345.030,191.111 345.561,191.111 345.825 C 191.111 346.089,190.236 346.867,189.167 347.553 C 188.097 348.239,186.906 349.152,186.520 349.582 C 186.133 350.012,185.050 350.807,184.112 351.349 C 183.175 351.890,181.657 353.026,180.741 353.872 C 179.724 354.811,178.285 355.669,177.051 356.072 C 175.938 356.436,174.531 357.151,173.924 357.662 C 172.573 358.799,171.782 359.109,168.490 359.796 C 167.076 360.091,164.607 360.924,163.004 361.648 C 157.678 364.053,141.575 363.959,136.693 361.495 C 135.418 360.851,132.995 360.031,131.309 359.673 C 129.009 359.184,127.788 358.688,126.424 357.686 C 125.423 356.952,124.110 356.232,123.506 356.086 C 121.791 355.674,120.269 354.835,119.259 353.746 C 118.750 353.196,117.750 352.342,117.037 351.847 C 113.565 349.438,108.015 344.173,91.667 327.780 C 81.889 317.976,72.472 308.567,70.741 306.870 C 64.146 300.408,53.440 289.376,52.212 287.778 C 51.507 286.861,50.312 285.414,49.555 284.562 C 48.798 283.710,47.923 282.399,47.609 281.649 C 47.296 280.899,46.572 279.753,46.000 279.102 C 45.428 278.451,44.496 276.609,43.928 275.009 C 43.360 273.409,42.530 271.503,42.083 270.772 C 40.729 268.561,40.392 267.516,40.004 264.340 C 39.800 262.666,39.386 259.630,39.083 257.593 C 38.385 252.893,38.390 250.097,39.104 245.000 C 39.418 242.759,39.828 239.676,40.014 238.148 C 40.276 236.007,40.770 234.521,42.171 231.667 C 43.170 229.630,44.197 227.296,44.454 226.481 C 44.710 225.667,45.373 224.417,45.928 223.704 C 46.482 222.991,47.206 221.879,47.537 221.232 C 47.867 220.586,48.781 219.314,49.567 218.405 C 50.354 217.497,51.386 216.109,51.861 215.321 C 52.958 213.503,56.447 209.381,57.979 208.094 C 58.377 207.759,59.255 206.801,59.928 205.965 C 60.602 205.129,61.354 204.444,61.600 204.444 C 61.846 204.444,62.453 203.788,62.948 202.987 C 63.444 202.185,64.275 201.310,64.795 201.042 C 66.001 200.421,66.355 200.059,67.029 198.755 C 67.330 198.172,67.922 197.564,68.343 197.404 C 68.764 197.244,69.518 196.658,70.017 196.102 C 70.517 195.547,71.634 194.344,72.500 193.430 C 75.004 190.787,74.074 188.462,68.780 184.130 C 68.618 183.997,67.779 183.139,66.915 182.222 C 66.052 181.306,65.018 180.278,64.617 179.939 C 64.217 179.599,63.472 178.813,62.963 178.190 C 62.454 177.568,61.833 177.054,61.583 177.048 C 61.333 177.042,60.860 176.628,60.533 176.128 C 60.205 175.628,58.353 173.586,56.416 171.591 C 54.480 169.596,52.252 167.026,51.465 165.880 C 50.679 164.734,49.784 163.700,49.476 163.582 C 49.168 163.464,48.392 162.318,47.751 161.035 C 47.111 159.753,46.292 158.370,45.932 157.963 C 45.572 157.556,44.730 155.806,44.061 154.074 C 43.391 152.343,42.460 150.403,41.991 149.764 C 39.404 146.242,37.899 129.948,39.395 121.667 C 39.727 119.833,39.998 117.859,39.999 117.279 C 40.001 115.683,41.045 112.424,42.009 111.002 C 42.482 110.306,43.334 108.367,43.902 106.694 C 44.497 104.944,45.383 103.174,45.989 102.525 C 46.568 101.905,47.297 100.861,47.608 100.204 C 47.920 99.548,49.002 98.032,50.013 96.836 C 51.025 95.640,51.852 94.473,51.852 94.242 C 51.852 94.011,52.604 93.025,53.524 92.051 C 54.444 91.078,55.456 89.840,55.775 89.302 C 56.093 88.763,56.910 87.957,57.590 87.511 C 58.271 87.065,59.104 86.232,59.442 85.659 C 59.780 85.087,60.614 84.253,61.294 83.807 C 61.974 83.362,62.808 82.528,63.146 81.956 C 63.484 81.383,64.317 80.550,64.998 80.104 C 65.678 79.658,66.511 78.824,66.849 78.252 C 67.188 77.679,68.021 76.846,68.701 76.400 C 69.382 75.954,70.225 75.104,70.575 74.511 C 70.925 73.919,71.681 73.156,72.255 72.818 C 72.828 72.479,73.671 71.664,74.126 71.008 C 74.582 70.352,75.381 69.481,75.902 69.074 C 76.422 68.667,77.393 67.750,78.059 67.037 C 78.725 66.324,79.392 65.624,79.542 65.481 C 79.962 65.082,82.731 62.308,83.148 61.869 C 83.352 61.655,84.019 60.993,84.630 60.398 C 85.241 59.803,86.097 58.952,86.533 58.506 C 86.969 58.060,87.994 57.031,88.811 56.218 C 89.628 55.406,90.463 54.574,90.667 54.370 C 90.870 54.167,91.704 53.333,92.519 52.519 C 93.333 51.704,94.167 50.870,94.370 50.667 C 94.574 50.463,95.407 49.630,96.222 48.815 C 97.037 48.000,97.845 47.186,98.019 47.005 C 98.192 46.825,98.917 46.132,99.630 45.466 C 100.343 44.800,101.259 43.840,101.667 43.331 C 102.074 42.823,102.741 42.226,103.148 42.005 C 103.556 41.784,104.220 41.107,104.624 40.502 C 105.028 39.896,105.991 38.950,106.763 38.401 C 107.535 37.851,108.340 37.022,108.551 36.558 C 108.762 36.095,109.707 35.227,110.650 34.630 C 111.593 34.034,112.625 33.235,112.942 32.855 C 113.259 32.475,114.269 31.728,115.185 31.195 C 116.102 30.662,117.563 29.610,118.432 28.857 C 119.301 28.104,120.885 27.053,121.951 26.520 C 123.017 25.988,124.851 24.995,126.026 24.315 C 127.202 23.634,129.118 22.865,130.285 22.605 C 131.453 22.346,132.824 21.840,133.333 21.481 C 136.616 19.168,154.366 18.017,162.013 19.620 M145.335 54.409 C 144.183 54.550,142.957 55.003,142.187 55.574 C 141.493 56.088,140.111 56.920,139.114 57.421 C 138.118 57.923,136.514 59.083,135.551 60.000 C 134.588 60.917,133.403 62.008,132.919 62.425 C 132.434 62.842,131.689 63.592,131.263 64.091 C 130.837 64.591,129.920 65.523,129.226 66.162 C 128.531 66.801,127.536 67.801,127.013 68.384 C 126.491 68.967,124.824 70.628,123.310 72.074 C 121.795 73.520,120.120 75.187,119.587 75.777 C 119.055 76.368,118.305 77.127,117.921 77.463 C 117.537 77.798,116.882 78.465,116.466 78.944 C 116.050 79.423,115.134 80.335,114.429 80.971 C 113.725 81.608,112.718 82.608,112.193 83.194 C 111.667 83.780,110.001 85.447,108.489 86.899 C 106.978 88.351,105.305 90.018,104.773 90.603 C 103.601 91.892,102.205 93.290,98.395 96.994 C 96.800 98.546,94.300 101.039,92.840 102.535 C 91.380 104.031,87.803 107.644,84.891 110.565 C 76.847 118.632,74.432 122.652,73.563 129.420 C 73.239 131.950,75.197 139.398,76.506 140.611 C 77.002 141.070,77.407 141.684,77.407 141.974 C 77.407 142.264,77.657 142.709,77.963 142.963 C 78.269 143.217,78.519 143.654,78.519 143.934 C 78.519 144.215,78.685 144.444,78.889 144.444 C 79.093 144.444,79.259 144.615,79.259 144.822 C 79.259 145.030,80.176 146.071,81.296 147.136 C 82.417 148.200,83.333 149.243,83.333 149.453 C 83.333 149.856,85.454 151.852,85.882 151.852 C 86.020 151.852,86.378 152.223,86.677 152.677 C 86.977 153.130,87.689 153.922,88.260 154.436 C 88.831 154.950,89.664 155.763,90.112 156.243 C 90.560 156.724,91.575 157.724,92.369 158.466 C 93.162 159.208,94.079 160.127,94.406 160.508 C 94.733 160.890,98.083 164.258,101.852 167.994 C 105.620 171.730,108.870 174.964,109.074 175.180 C 109.278 175.397,125.632 191.790,145.418 211.609 L 181.391 247.643 181.817 249.627 C 182.124 251.062,182.130 251.680,181.836 251.862 C 181.613 252.000,176.317 257.187,170.067 263.389 C 157.728 275.633,157.564 275.775,154.187 277.147 L 151.894 278.079 149.558 277.137 C 146.900 276.064,145.400 275.111,142.845 272.868 C 141.487 271.677,108.035 238.717,106.111 236.676 C 105.907 236.460,103.949 234.503,101.759 232.328 C 99.569 230.152,97.778 228.225,97.778 228.046 C 97.778 226.329,91.778 223.266,91.030 224.602 C 90.831 224.959,88.245 227.694,85.284 230.681 C 82.322 233.667,79.346 236.944,78.669 237.963 C 77.992 238.981,77.098 240.231,76.683 240.741 C 75.844 241.770,73.877 247.781,73.531 250.370 C 73.367 251.599,73.591 253.060,74.381 255.926 C 76.296 262.867,76.123 262.669,108.029 294.477 C 137.286 323.643,137.340 323.693,139.929 324.468 C 140.807 324.730,142.226 325.562,143.081 326.315 C 145.456 328.405,154.600 328.883,156.598 327.022 C 157.002 326.645,158.641 325.690,160.240 324.900 C 163.417 323.330,163.651 323.138,170.278 316.658 C 172.774 314.218,174.978 312.222,175.176 312.222 C 175.374 312.222,175.775 311.764,176.066 311.204 C 176.358 310.644,177.275 309.685,178.104 309.074 C 178.934 308.463,179.620 307.796,179.630 307.593 C 179.639 307.389,181.253 305.722,183.216 303.889 C 185.179 302.056,186.967 300.329,187.189 300.051 C 187.609 299.527,189.276 297.885,190.556 296.736 C 190.963 296.371,191.713 295.629,192.222 295.089 C 192.731 294.549,199.481 287.778,207.222 280.043 C 224.774 262.504,224.109 263.219,225.369 260.556 C 225.946 259.333,226.807 257.804,227.282 257.157 C 229.161 254.594,229.527 245.522,227.837 243.409 C 227.396 242.858,226.372 241.103,225.561 239.508 C 224.750 237.914,223.375 235.845,222.506 234.911 C 220.910 233.195,217.254 229.342,216.375 228.448 C 216.112 228.181,196.612 208.694,173.041 185.144 C 125.559 137.703,123.849 135.950,123.500 134.359 C 123.070 132.403,123.664 129.557,124.834 127.963 C 125.432 127.148,126.380 125.740,126.942 124.835 C 127.504 123.929,128.671 122.528,129.537 121.722 C 130.403 120.916,131.111 120.125,131.111 119.965 C 131.111 119.743,147.718 103.055,167.747 83.148 C 167.952 82.944,169.668 81.186,171.560 79.240 C 173.452 77.294,175.388 75.436,175.862 75.111 C 176.638 74.578,176.697 74.344,176.455 72.733 C 176.197 71.007,175.735 70.342,173.497 68.473 C 173.101 68.143,172.256 67.310,171.617 66.622 C 170.979 65.933,170.063 65.013,169.580 64.577 C 169.098 64.141,168.242 63.307,167.678 62.725 C 160.440 55.251,155.004 53.228,145.335 54.409 M250.256 54.434 C 249.277 54.613,247.944 55.165,247.293 55.661 C 246.643 56.156,245.278 56.985,244.259 57.503 C 243.241 58.021,241.574 59.211,240.556 60.148 C 237.110 63.319,236.853 63.563,236.296 64.193 C 235.750 64.812,233.611 66.967,231.913 68.608 C 231.437 69.068,230.603 69.918,230.061 70.496 C 229.042 71.583,228.260 72.350,226.667 73.827 C 226.157 74.299,225.476 75.006,225.152 75.398 C 224.828 75.790,223.994 76.629,223.300 77.263 C 222.605 77.896,221.592 78.896,221.047 79.485 C 220.503 80.074,219.586 80.998,219.010 81.540 C 218.434 82.081,217.597 82.915,217.149 83.392 C 216.701 83.869,215.868 84.703,215.297 85.246 C 214.726 85.789,213.883 86.622,213.423 87.098 C 212.963 87.574,211.919 88.630,211.104 89.444 C 209.169 91.379,209.276 91.272,207.778 92.748 C 207.065 93.450,206.190 94.327,205.833 94.697 C 204.994 95.569,202.328 98.241,201.893 98.648 C 201.707 98.821,200.889 99.630,200.074 100.444 C 199.259 101.259,198.426 102.093,198.222 102.296 C 198.019 102.500,197.185 103.333,196.370 104.148 C 195.556 104.963,194.747 105.777,194.574 105.957 C 194.401 106.137,191.926 108.626,189.074 111.489 C 182.226 118.362,180.462 120.367,179.937 121.874 C 179.696 122.564,178.904 124.128,178.176 125.350 L 176.853 127.572 176.857 132.212 C 176.861 137.014,177.205 138.386,178.718 139.642 C 179.059 139.924,179.728 141.038,180.204 142.116 C 181.577 145.220,181.173 144.801,230.185 193.908 C 276.019 239.831,280.733 244.691,281.727 247.055 C 282.901 249.848,282.162 252.786,279.583 255.583 C 279.099 256.108,278.339 257.191,277.893 257.991 C 277.446 258.790,276.790 259.611,276.433 259.815 C 275.528 260.331,274.438 261.432,273.222 263.058 C 272.651 263.821,271.985 264.454,271.740 264.466 C 271.496 264.477,270.669 265.310,269.902 266.317 C 269.135 267.324,268.260 268.148,267.957 268.148 C 267.655 268.148,267.407 268.273,267.406 268.426 C 267.404 268.867,264.760 271.852,264.372 271.852 C 263.951 271.852,262.963 272.794,262.963 273.194 C 262.963 273.631,261.023 275.555,260.579 275.559 C 260.362 275.561,259.852 275.998,259.444 276.529 C 258.353 277.952,256.578 279.739,255.639 280.360 C 255.186 280.659,254.815 281.109,254.815 281.359 C 254.815 281.609,254.190 282.281,253.426 282.852 C 251.777 284.083,251.425 284.434,250.901 285.361 C 250.684 285.746,250.184 286.239,249.790 286.457 C 249.396 286.674,248.741 287.268,248.333 287.776 C 247.926 288.284,247.009 289.245,246.296 289.911 C 244.823 291.286,244.942 291.168,243.049 293.148 C 242.270 293.963,241.307 294.880,240.909 295.185 C 240.511 295.491,240.003 296.074,239.781 296.481 C 239.559 296.889,238.694 297.722,237.859 298.333 C 237.025 298.944,236.331 299.643,236.319 299.886 C 236.306 300.130,235.612 300.880,234.776 301.553 C 233.940 302.227,232.982 303.099,232.646 303.492 C 232.311 303.885,231.303 305.013,230.406 305.999 L 228.774 307.792 229.212 309.747 C 229.494 311.010,229.935 311.893,230.456 312.240 C 230.900 312.536,233.034 314.528,235.199 316.667 C 240.391 321.797,242.971 323.880,245.099 324.661 C 246.063 325.015,247.571 325.847,248.449 326.511 C 251.297 328.665,259.955 328.768,262.341 326.677 C 262.988 326.109,264.602 325.143,265.926 324.530 C 267.250 323.917,269.152 322.689,270.152 321.800 C 274.185 318.219,326.099 266.007,326.997 264.630 C 327.528 263.815,328.316 262.757,328.747 262.279 C 330.426 260.418,332.657 252.336,332.186 249.817 C 331.016 243.554,328.104 238.500,322.376 232.791 C 320.321 230.743,318.571 228.901,318.487 228.698 C 318.402 228.494,317.634 227.781,316.779 227.112 C 315.925 226.443,315.124 225.577,315.001 225.188 C 314.878 224.799,314.223 224.139,313.546 223.721 C 312.870 223.303,311.935 222.404,311.469 221.725 C 311.003 221.045,310.078 220.116,309.414 219.660 C 308.749 219.205,307.817 218.263,307.343 217.567 C 306.869 216.871,306.295 216.300,306.067 216.299 C 305.681 216.296,303.302 213.653,303.025 212.919 C 302.957 212.740,302.725 212.593,302.509 212.593 C 302.029 212.593,300.000 210.514,300.000 210.021 C 300.000 209.825,299.250 209.149,298.333 208.519 C 297.417 207.888,296.667 207.176,296.667 206.937 C 296.667 206.697,295.708 205.552,294.537 204.392 C 293.366 203.233,292.191 202.062,291.927 201.790 C 286.202 195.912,267.319 177.407,267.044 177.407 C 266.837 177.407,266.667 177.227,266.667 177.007 C 266.667 176.695,261.908 171.678,258.201 168.081 C 257.924 167.812,255.822 165.718,253.529 163.426 C 251.237 161.134,249.171 159.259,248.940 159.259 C 248.708 159.259,248.519 159.085,248.519 158.873 C 248.519 158.661,243.977 153.919,238.426 148.336 C 232.875 142.752,228.167 138.014,227.963 137.807 C 227.759 137.599,226.976 136.914,226.221 136.285 C 225.467 135.655,224.737 134.775,224.599 134.329 C 224.460 133.883,224.036 133.076,223.655 132.535 C 223.274 131.995,222.963 131.378,222.963 131.164 C 222.963 130.507,245.611 108.161,247.778 106.680 C 253.137 103.017,254.094 102.896,258.231 105.361 C 259.437 106.079,260.565 106.667,260.739 106.667 C 260.912 106.667,261.525 107.131,262.101 107.698 C 262.677 108.266,263.728 109.137,264.436 109.635 C 266.355 110.985,307.902 152.656,309.180 154.515 C 309.918 155.587,310.755 156.285,311.715 156.628 C 312.503 156.911,313.261 157.317,313.399 157.531 C 313.696 157.992,315.495 156.382,320.185 151.462 C 322.019 149.538,323.852 147.693,324.259 147.361 C 324.667 147.029,325.663 145.779,326.473 144.583 C 327.284 143.386,328.386 141.824,328.922 141.111 C 331.559 137.608,332.934 129.835,331.526 126.398 C 331.127 125.425,330.505 123.640,330.143 122.430 C 329.781 121.220,329.048 119.720,328.515 119.097 C 327.982 118.473,327.195 117.457,326.768 116.840 C 326.188 116.002,287.788 77.488,270.370 60.276 C 269.454 59.370,267.074 57.675,265.083 56.509 L 261.462 54.390 256.749 54.249 C 254.158 54.172,251.236 54.255,250.256 54.434 " stroke="none" fill="#f4f4f3" fill-rule="evenodd"></path><path id="path2" d="M140.643 19.685 C 137.511 20.043,134.418 21.068,132.963 22.229 C 132.357 22.712,132.804 22.582,134.259 21.852 C 137.412 20.270,139.471 19.961,148.889 19.655 L 157.222 19.384 150.370 19.370 C 146.602 19.362,142.225 19.504,140.643 19.685 M256.852 19.635 C 266.436 19.994,268.587 20.321,271.625 21.882 C 272.870 22.522,273.722 22.878,273.519 22.673 C 271.252 20.391,267.405 19.643,257.037 19.470 L 248.704 19.330 256.852 19.635 M158.246 19.895 C 158.809 19.981,159.642 19.978,160.098 19.890 C 160.553 19.802,160.093 19.733,159.074 19.736 C 158.056 19.738,157.683 19.810,158.246 19.895 M245.648 19.895 C 246.208 19.980,247.125 19.980,247.685 19.895 C 248.245 19.810,247.787 19.741,246.667 19.741 C 245.546 19.741,245.088 19.810,245.648 19.895 M161.574 20.255 C 161.931 20.348,162.514 20.348,162.870 20.255 C 163.227 20.162,162.935 20.086,162.222 20.086 C 161.509 20.086,161.218 20.162,161.574 20.255 M130.741 22.860 C 129.383 23.103,129.039 23.608,130.363 23.413 C 130.983 23.322,131.582 23.100,131.693 22.920 C 131.804 22.740,131.844 22.615,131.781 22.643 C 131.718 22.671,131.250 22.768,130.741 22.860 M274.284 23.003 C 274.396 23.184,274.804 23.333,275.190 23.333 C 276.169 23.333,279.307 24.637,281.111 25.794 L 282.037 26.387 281.111 25.595 C 279.480 24.200,273.657 21.989,274.284 23.003 M127.500 23.885 C 126.838 24.173,125.588 24.886,124.723 25.471 C 123.857 26.055,122.618 26.745,121.970 27.005 C 120.607 27.550,118.183 29.259,118.772 29.259 C 118.990 29.259,119.355 29.035,119.582 28.761 C 119.810 28.487,120.705 27.949,121.572 27.566 C 122.439 27.182,124.132 26.240,125.335 25.471 C 126.538 24.703,127.737 24.074,127.999 24.074 C 128.260 24.074,128.578 23.907,128.704 23.704 C 128.988 23.244,128.970 23.246,127.500 23.885 M285.041 28.001 C 285.833 28.531,286.898 29.344,287.407 29.807 C 287.917 30.271,288.750 30.841,289.259 31.073 C 290.041 31.431,290.079 31.423,289.504 31.026 C 289.130 30.767,287.827 29.764,286.609 28.796 C 285.392 27.829,284.216 27.037,283.998 27.037 C 283.779 27.037,284.249 27.471,285.041 28.001 M114.815 31.852 C 113.898 32.461,113.277 32.961,113.434 32.961 C 113.757 32.963,116.667 31.087,116.667 30.877 C 116.667 30.641,116.521 30.718,114.815 31.852 M291.897 32.948 C 292.789 33.754,293.654 34.421,293.819 34.429 C 293.984 34.438,293.349 33.778,292.407 32.963 C 290.192 31.045,289.779 31.033,291.897 32.948 M111.339 34.626 C 110.344 35.314,109.344 36.078,109.117 36.324 C 108.890 36.570,109.745 36.075,111.019 35.224 C 112.292 34.372,113.333 33.599,113.333 33.505 C 113.333 33.251,113.299 33.270,111.339 34.626 M294.630 34.682 C 296.515 36.356,297.210 36.844,296.483 35.984 C 296.079 35.507,295.414 34.945,295.004 34.735 C 294.594 34.525,294.426 34.502,294.630 34.682 M297.037 37.153 C 297.037 37.255,297.870 38.036,298.889 38.889 C 299.907 39.742,300.741 40.356,300.741 40.254 C 300.741 40.152,299.907 39.371,298.889 38.519 C 297.870 37.666,297.037 37.051,297.037 37.153 M106.481 39.115 L 105.000 40.441 106.574 39.263 C 107.929 38.250,108.418 37.762,108.056 37.783 C 108.005 37.786,107.296 38.385,106.481 39.115 M99.444 46.169 C 97.859 47.622,97.811 47.702,99.110 46.725 C 100.481 45.693,101.784 44.423,101.434 44.459 C 101.358 44.467,100.463 45.236,99.444 46.169 M304.444 44.561 C 304.444 44.663,305.278 45.444,306.296 46.296 C 307.315 47.149,308.148 47.763,308.148 47.662 C 308.148 47.560,307.315 46.779,306.296 45.926 C 305.278 45.073,304.444 44.459,304.444 44.561 M310.000 49.746 C 310.000 49.809,310.542 50.351,311.204 50.949 L 312.407 52.037 311.320 50.833 C 310.306 49.711,310.000 49.459,310.000 49.746 M313.704 53.449 C 313.704 53.513,314.245 54.055,314.907 54.653 L 316.111 55.741 315.023 54.537 C 314.009 53.415,313.704 53.163,313.704 53.449 M87.191 58.360 L 85.741 59.683 87.315 58.483 C 88.753 57.387,89.104 57.037,88.765 57.037 C 88.697 57.037,87.989 57.632,87.191 58.360 M332.593 72.338 C 332.593 72.402,333.134 72.944,333.796 73.542 L 335.000 74.630 333.912 73.426 C 332.898 72.304,332.593 72.052,332.593 72.338 M53.871 92.315 L 52.407 93.889 53.981 92.425 C 54.847 91.620,55.556 90.911,55.556 90.851 C 55.556 90.571,55.233 90.851,53.871 92.315 M50.765 96.396 C 49.710 97.696,49.669 97.805,50.521 97.037 C 51.408 96.239,52.459 94.801,52.143 94.821 C 52.085 94.825,51.465 95.533,50.765 96.396 M46.088 103.056 L 45.000 104.259 46.204 103.171 C 46.866 102.573,47.407 102.031,47.407 101.968 C 47.407 101.682,47.102 101.934,46.088 103.056 M364.820 116.883 C 364.824 117.681,364.972 118.564,365.151 118.846 C 365.350 119.160,365.400 118.656,365.281 117.550 C 365.039 115.294,364.813 114.967,364.820 116.883 M39.018 130.370 C 39.018 132.102,39.082 132.810,39.160 131.944 C 39.238 131.079,39.238 129.662,39.160 128.796 C 39.082 127.931,39.018 128.639,39.018 130.370 M366.397 128.889 C 366.397 129.806,366.469 130.181,366.558 129.722 C 366.646 129.264,366.646 128.514,366.558 128.056 C 366.469 127.597,366.397 127.972,366.397 128.889 M366.407 133.333 C 366.407 134.454,366.477 134.912,366.562 134.352 C 366.646 133.792,366.646 132.875,366.562 132.315 C 366.477 131.755,366.407 132.213,366.407 133.333 M364.916 144.074 C 364.916 144.991,364.988 145.366,365.076 144.907 C 365.164 144.449,365.164 143.699,365.076 143.241 C 364.988 142.782,364.916 143.157,364.916 144.074 M364.916 237.778 C 364.916 238.694,364.988 239.069,365.076 238.611 C 365.164 238.153,365.164 237.403,365.076 236.944 C 364.988 236.486,364.916 236.861,364.916 237.778 M366.432 251.296 C 366.433 253.333,366.495 254.119,366.570 253.043 C 366.645 251.967,366.644 250.300,366.568 249.339 C 366.492 248.379,366.431 249.259,366.432 251.296 M38.945 251.296 C 38.920 253.130,39.023 254.823,39.174 255.059 C 39.324 255.295,39.398 254.129,39.338 252.467 C 39.178 248.029,38.996 247.488,38.945 251.296 M364.916 264.815 C 364.916 265.731,364.988 266.106,365.076 265.648 C 365.164 265.190,365.164 264.440,365.076 263.981 C 364.988 263.523,364.916 263.898,364.916 264.815 M358.869 279.537 L 357.593 280.926 358.981 279.650 C 360.274 278.462,360.541 278.148,360.258 278.148 C 360.196 278.148,359.571 278.773,358.869 279.537 M355.347 284.537 L 354.259 285.741 355.463 284.653 C 356.125 284.055,356.667 283.513,356.667 283.449 C 356.667 283.163,356.361 283.415,355.347 284.537 M54.259 289.630 C 55.262 290.648,56.167 291.481,56.268 291.481 C 56.370 291.481,55.633 290.648,54.630 289.630 C 53.626 288.611,52.722 287.778,52.620 287.778 C 52.519 287.778,53.256 288.611,54.259 289.630 M351.091 289.907 L 349.815 291.296 351.204 290.020 C 352.496 288.832,352.763 288.519,352.480 288.519 C 352.418 288.519,351.793 289.144,351.091 289.907 M348.132 293.056 C 347.444 293.921,347.174 294.394,347.532 294.107 C 348.206 293.566,349.793 291.481,349.532 291.481 C 349.450 291.481,348.820 292.190,348.132 293.056 M57.407 293.148 C 58.098 293.861,58.747 294.444,58.849 294.444 C 58.951 294.444,58.469 293.861,57.778 293.148 C 57.087 292.435,56.438 291.852,56.336 291.852 C 56.234 291.852,56.716 292.435,57.407 293.148 M345.703 295.278 C 344.081 297.149,343.599 297.778,343.787 297.778 C 343.896 297.778,344.599 297.028,345.351 296.111 C 346.742 294.413,347.017 293.762,345.703 295.278 M60.370 296.042 C 60.370 296.106,60.912 296.647,61.574 297.246 L 62.778 298.333 61.690 297.130 C 60.676 296.008,60.370 295.756,60.370 296.042 M64.444 300.185 C 65.135 300.898,65.784 301.481,65.886 301.481 C 65.988 301.481,65.506 300.898,64.815 300.185 C 64.124 299.472,63.475 298.889,63.373 298.889 C 63.271 298.889,63.753 299.472,64.444 300.185 M334.606 306.389 L 333.519 307.593 334.722 306.505 C 335.384 305.906,335.926 305.365,335.926 305.301 C 335.926 305.015,335.620 305.267,334.606 306.389 M75.185 310.857 C 75.185 310.920,75.727 311.462,76.389 312.060 L 77.593 313.148 76.505 311.944 C 75.491 310.822,75.185 310.570,75.185 310.857 M80.000 315.741 C 80.691 316.454,81.340 317.037,81.442 317.037 C 81.543 317.037,81.061 316.454,80.370 315.741 C 79.679 315.028,79.031 314.444,78.929 314.444 C 78.827 314.444,79.309 315.028,80.000 315.741 M83.519 319.259 C 84.522 320.278,85.426 321.111,85.528 321.111 C 85.630 321.111,84.892 320.278,83.889 319.259 C 82.886 318.241,81.982 317.407,81.880 317.407 C 81.778 317.407,82.515 318.241,83.519 319.259 M87.778 323.519 C 88.469 324.231,89.118 324.815,89.219 324.815 C 89.321 324.815,88.839 324.231,88.148 323.519 C 87.457 322.806,86.808 322.222,86.707 322.222 C 86.605 322.222,87.087 322.806,87.778 323.519 M91.466 327.130 C 92.374 328.097,93.166 328.889,93.225 328.889 C 93.503 328.889,93.209 328.556,91.574 327.022 L 89.815 325.370 91.466 327.130 M312.014 328.981 L 310.926 330.185 312.130 329.097 C 313.252 328.083,313.504 327.778,313.217 327.778 C 313.154 327.778,312.612 328.319,312.014 328.981 M94.815 330.556 C 95.506 331.269,96.155 331.852,96.256 331.852 C 96.358 331.852,95.876 331.269,95.185 330.556 C 94.494 329.843,93.845 329.259,93.744 329.259 C 93.642 329.259,94.124 329.843,94.815 330.556 M307.940 333.056 L 306.852 334.259 308.056 333.171 C 308.718 332.573,309.259 332.031,309.259 331.968 C 309.259 331.682,308.954 331.934,307.940 333.056 M98.889 334.630 C 99.580 335.343,100.229 335.926,100.330 335.926 C 100.432 335.926,99.950 335.343,99.259 334.630 C 98.568 333.917,97.920 333.333,97.818 333.333 C 97.716 333.333,98.198 333.917,98.889 334.630 M102.593 338.333 C 103.284 339.046,103.932 339.630,104.034 339.630 C 104.136 339.630,103.654 339.046,102.963 338.333 C 102.272 337.620,101.623 337.037,101.521 337.037 C 101.420 337.037,101.902 337.620,102.593 338.333 M109.630 345.370 C 110.321 346.083,110.969 346.667,111.071 346.667 C 111.173 346.667,110.691 346.083,110.000 345.370 C 109.309 344.657,108.660 344.074,108.558 344.074 C 108.457 344.074,108.939 344.657,109.630 345.370 M291.832 348.796 L 290.556 350.185 291.944 348.909 C 293.237 347.721,293.504 347.407,293.221 347.407 C 293.159 347.407,292.534 348.032,291.832 348.796 M113.704 348.634 C 113.704 348.698,114.245 349.240,114.907 349.838 L 116.111 350.926 115.023 349.722 C 114.009 348.600,113.704 348.348,113.704 348.634 M148.981 362.858 C 149.542 362.943,150.458 362.943,151.019 362.858 C 151.579 362.773,151.120 362.704,150.000 362.704 C 148.880 362.704,148.421 362.773,148.981 362.858 M256.389 362.848 C 256.745 362.941,257.329 362.941,257.685 362.848 C 258.042 362.755,257.750 362.679,257.037 362.679 C 256.324 362.679,256.032 362.755,256.389 362.848 " stroke="none" fill="#a5995e" fill-rule="evenodd"></path><path id="path3" d="M140.735 19.283 C 137.675 19.609,134.764 20.473,133.333 21.481 C 132.824 21.840,131.453 22.346,130.285 22.605 C 129.118 22.865,127.202 23.634,126.026 24.315 C 124.851 24.995,123.017 25.988,121.951 26.520 C 120.885 27.053,119.301 28.104,118.432 28.857 C 117.563 29.610,116.102 30.662,115.185 31.195 C 114.269 31.728,113.259 32.475,112.942 32.855 C 112.625 33.235,111.593 34.034,110.650 34.630 C 109.707 35.227,108.762 36.095,108.551 36.558 C 108.340 37.022,107.535 37.851,106.763 38.401 C 105.991 38.950,105.028 39.896,104.624 40.502 C 104.220 41.107,103.556 41.784,103.148 42.005 C 102.741 42.226,102.074 42.823,101.667 43.331 C 101.259 43.840,100.343 44.800,99.630 45.466 C 98.917 46.132,98.192 46.825,98.019 47.005 C 97.845 47.186,97.037 48.000,96.222 48.815 C 95.407 49.630,94.574 50.463,94.370 50.667 C 94.167 50.870,93.333 51.704,92.519 52.519 C 91.704 53.333,90.870 54.167,90.667 54.370 C 90.463 54.574,89.628 55.406,88.811 56.218 C 87.994 57.031,86.969 58.060,86.533 58.506 C 86.097 58.952,85.241 59.803,84.630 60.398 C 84.019 60.993,83.352 61.655,83.148 61.869 C 82.731 62.308,79.962 65.082,79.542 65.481 C 79.392 65.624,78.725 66.324,78.059 67.037 C 77.393 67.750,76.422 68.667,75.902 69.074 C 75.381 69.481,74.582 70.352,74.126 71.008 C 73.671 71.664,72.828 72.479,72.255 72.818 C 71.681 73.156,70.925 73.919,70.575 74.511 C 70.225 75.104,69.382 75.954,68.701 76.400 C 68.021 76.846,67.188 77.679,66.849 78.252 C 66.511 78.824,65.678 79.658,64.998 80.104 C 64.317 80.550,63.484 81.383,63.146 81.956 C 62.808 82.528,61.974 83.362,61.294 83.807 C 60.614 84.253,59.780 85.087,59.442 85.659 C 59.104 86.232,58.271 87.065,57.590 87.511 C 56.910 87.957,56.093 88.763,55.775 89.302 C 55.456 89.840,54.444 91.078,53.524 92.051 C 52.604 93.025,51.852 94.011,51.852 94.242 C 51.852 94.473,51.025 95.640,50.013 96.836 C 49.002 98.032,47.920 99.548,47.608 100.204 C 47.297 100.861,46.549 101.925,45.947 102.570 C 44.818 103.778,44.212 105.076,44.596 105.460 C 44.716 105.580,44.815 105.402,44.815 105.063 C 44.815 104.724,45.375 103.821,46.061 103.057 C 46.746 102.292,47.598 101.083,47.954 100.370 C 48.310 99.657,49.233 98.314,50.004 97.385 C 50.775 96.457,51.715 95.194,52.092 94.579 C 53.281 92.641,55.903 89.788,62.963 82.753 C 66.731 78.998,69.935 75.800,70.082 75.648 C 73.755 71.831,80.782 64.822,81.176 64.582 C 81.466 64.404,82.063 63.744,82.501 63.115 C 82.940 62.486,83.881 61.572,84.592 61.085 C 85.303 60.598,85.958 59.916,86.049 59.570 C 86.139 59.224,86.877 58.471,87.688 57.896 C 88.499 57.322,89.510 56.324,89.935 55.679 C 90.359 55.034,91.192 54.220,91.785 53.870 C 92.378 53.519,93.140 52.764,93.479 52.190 C 93.818 51.616,94.632 50.771,95.288 50.311 C 95.945 49.851,96.724 49.141,97.021 48.732 C 97.890 47.536,107.806 37.778,108.152 37.778 C 108.326 37.778,108.575 37.443,108.705 37.033 C 108.835 36.623,109.930 35.617,111.137 34.797 C 112.345 33.977,113.333 33.180,113.333 33.027 C 113.333 32.874,114.208 32.216,115.278 31.565 C 116.347 30.913,117.806 29.866,118.519 29.237 C 119.231 28.609,120.731 27.634,121.852 27.071 C 122.972 26.508,124.722 25.525,125.741 24.887 C 126.759 24.249,128.593 23.473,129.815 23.162 C 131.037 22.851,133.037 22.096,134.259 21.484 C 137.406 19.909,139.480 19.593,148.704 19.285 L 156.852 19.013 150.185 19.000 C 146.519 18.993,142.266 19.121,140.735 19.283 M246.155 19.271 C 244.550 19.454,243.143 19.697,243.029 19.811 C 242.915 19.925,244.061 19.889,245.577 19.731 C 255.462 18.702,267.748 19.594,271.907 21.644 C 273.380 22.369,274.879 22.963,275.238 22.963 C 276.415 22.963,279.130 24.188,281.601 25.833 C 282.595 26.495,283.635 27.037,283.912 27.037 C 284.189 27.037,285.297 27.751,286.374 28.624 C 287.452 29.496,289.000 30.610,289.815 31.098 C 290.630 31.587,291.922 32.539,292.686 33.215 C 293.451 33.891,294.242 34.444,294.445 34.444 C 294.716 34.444,309.315 48.891,316.481 56.250 C 316.685 56.459,324.309 64.097,333.424 73.223 C 353.722 93.546,352.702 92.483,353.618 94.269 C 354.033 95.078,354.733 96.154,355.174 96.660 C 355.616 97.166,356.550 98.523,357.251 99.677 C 357.952 100.831,358.764 101.867,359.056 101.979 C 359.942 102.319,360.767 103.904,361.340 106.366 C 361.639 107.652,362.305 109.312,362.819 110.057 C 364.389 112.328,365.688 117.957,366.180 124.630 C 366.285 126.056,366.479 127.339,366.612 127.482 C 367.228 128.148,365.741 116.590,364.792 113.333 C 364.525 112.417,363.868 111.000,363.333 110.185 C 362.328 108.654,361.481 106.231,361.481 104.883 C 361.481 104.459,360.648 103.229,359.630 102.150 C 358.611 101.070,357.776 100.020,357.774 99.816 C 357.772 99.612,357.014 98.444,356.090 97.222 C 355.166 96.000,354.148 94.456,353.827 93.792 C 353.507 93.128,352.804 92.211,352.265 91.755 C 351.727 91.299,350.924 90.415,350.480 89.789 C 349.838 88.883,341.480 80.409,336.018 75.127 C 335.458 74.585,334.639 73.752,334.198 73.275 C 333.757 72.798,333.007 72.055,332.532 71.624 C 332.056 71.194,331.234 70.360,330.705 69.773 C 330.176 69.185,329.426 68.433,329.038 68.103 C 328.651 67.773,327.818 66.939,327.188 66.251 C 326.559 65.563,325.559 64.553,324.966 64.007 C 324.374 63.460,323.362 62.460,322.718 61.784 C 322.075 61.109,321.158 60.203,320.681 59.773 C 320.205 59.342,319.375 58.508,318.837 57.921 C 318.299 57.333,317.466 56.496,316.985 56.061 C 316.504 55.627,314.840 53.960,313.286 52.358 C 311.732 50.755,310.065 49.086,309.582 48.647 C 309.099 48.208,308.264 47.375,307.726 46.795 C 307.188 46.215,306.355 45.388,305.874 44.958 C 305.393 44.527,304.571 43.694,304.046 43.106 C 303.521 42.518,302.688 41.678,302.194 41.239 C 301.700 40.801,300.856 39.968,300.318 39.388 C 299.780 38.808,298.947 37.975,298.467 37.538 C 297.986 37.100,297.037 36.142,296.358 35.408 C 295.678 34.674,294.910 34.074,294.650 34.074 C 294.391 34.074,293.421 33.407,292.495 32.593 C 291.570 31.778,290.701 31.111,290.565 31.111 C 290.217 31.111,287.465 29.149,285.926 27.802 C 285.213 27.179,284.437 26.668,284.202 26.668 C 283.615 26.666,280.741 25.109,280.741 24.792 C 280.741 24.429,277.556 23.104,275.365 22.554 C 274.350 22.300,272.685 21.636,271.667 21.080 C 268.374 19.281,254.627 18.306,246.155 19.271 M157.068 19.395 C 157.153 19.469,158.556 19.622,160.185 19.734 C 162.313 19.881,162.731 19.849,161.667 19.620 C 160.194 19.304,156.773 19.136,157.068 19.395 M166.107 21.491 C 167.734 22.301,169.353 22.963,169.704 22.963 C 170.056 22.963,171.204 23.302,172.257 23.717 C 173.309 24.132,174.235 24.407,174.315 24.327 C 174.522 24.120,170.429 22.593,169.668 22.593 C 169.318 22.593,167.874 22.010,166.460 21.297 C 165.046 20.585,163.722 20.006,163.519 20.011 C 163.315 20.015,164.480 20.681,166.107 21.491 M239.815 21.004 C 238.796 21.537,237.296 22.185,236.481 22.443 C 235.667 22.702,235.333 22.923,235.741 22.934 C 236.148 22.946,237.898 22.292,239.630 21.481 C 241.361 20.671,242.528 20.014,242.222 20.021 C 241.917 20.029,240.833 20.471,239.815 21.004 M232.819 23.509 C 232.027 23.791,230.694 24.500,229.856 25.085 C 229.019 25.670,227.637 26.452,226.786 26.822 C 225.936 27.192,224.769 27.991,224.194 28.598 C 223.619 29.204,222.231 30.168,221.111 30.741 C 219.991 31.313,218.585 32.298,217.986 32.928 C 217.388 33.558,216.748 34.074,216.563 34.074 C 216.379 34.074,215.804 34.407,215.286 34.815 C 214.768 35.222,214.513 35.556,214.720 35.556 C 214.926 35.556,215.302 35.306,215.556 35.000 C 215.809 34.694,216.215 34.444,216.458 34.444 C 216.700 34.444,217.388 33.929,217.986 33.298 C 218.585 32.668,219.991 31.684,221.111 31.111 C 222.231 30.538,223.619 29.574,224.194 28.968 C 224.769 28.362,225.936 27.560,226.786 27.186 C 227.637 26.813,229.140 25.962,230.127 25.296 C 231.113 24.629,232.572 23.909,233.368 23.694 C 234.164 23.480,234.815 23.228,234.815 23.134 C 234.815 22.870,234.383 22.951,232.819 23.509 M175.912 25.529 C 176.617 26.155,177.376 26.667,177.599 26.667 C 177.821 26.667,178.792 27.167,179.755 27.778 C 180.719 28.389,181.626 28.885,181.772 28.879 C 182.163 28.865,178.058 26.296,177.645 26.296 C 177.451 26.296,176.693 25.868,175.961 25.344 L 174.630 24.391 175.912 25.529 M182.222 29.650 C 183.151 30.285,186.253 31.852,186.562 31.843 C 186.721 31.839,185.776 31.255,184.462 30.547 C 182.143 29.298,181.088 28.875,182.222 29.650 M191.852 37.152 C 191.852 37.238,192.560 37.776,193.426 38.347 C 194.292 38.918,194.804 39.149,194.566 38.859 C 194.106 38.303,191.852 36.885,191.852 37.152 M211.060 38.911 L 210.185 39.674 211.296 39.023 C 212.759 38.167,212.780 38.148,212.325 38.148 C 212.110 38.148,211.540 38.491,211.060 38.911 M208.049 42.050 C 207.289 42.567,206.667 43.069,206.667 43.167 C 206.667 43.264,207.333 42.903,208.148 42.363 C 209.442 41.507,209.879 41.111,209.530 41.111 C 209.476 41.111,208.809 41.534,208.049 42.050 M199.780 45.093 C 200.371 45.791,200.856 45.926,202.778 45.926 C 204.699 45.926,205.185 45.791,205.776 45.093 C 206.481 44.260,206.481 44.260,205.712 44.907 C 205.171 45.363,204.298 45.556,202.778 45.556 C 201.257 45.556,200.385 45.363,199.844 44.907 C 199.075 44.260,199.075 44.260,199.780 45.093 M174.815 75.971 C 173.524 77.103,173.524 77.104,174.711 76.314 C 175.367 75.878,176.002 75.362,176.122 75.168 C 176.479 74.590,176.183 74.772,174.815 75.971 M166.377 84.352 C 165.804 84.912,165.676 85.101,166.093 84.773 C 166.510 84.444,167.185 83.991,167.593 83.766 C 168.000 83.540,168.128 83.351,167.876 83.345 C 167.625 83.338,166.950 83.792,166.377 84.352 M163.333 87.458 L 161.667 88.967 163.236 87.790 C 164.600 86.766,165.476 85.902,165.114 85.937 C 165.052 85.943,164.250 86.627,163.333 87.458 M159.444 91.341 L 157.593 93.038 159.537 91.485 C 161.221 90.139,161.754 89.607,161.389 89.637 C 161.338 89.641,160.463 90.408,159.444 91.341 M156.458 94.537 L 155.370 95.741 156.574 94.653 C 157.696 93.639,157.948 93.333,157.662 93.333 C 157.598 93.333,157.056 93.875,156.458 94.537 M152.222 98.569 L 150.556 100.078 152.124 98.901 C 153.489 97.877,154.365 97.013,154.003 97.048 C 153.940 97.054,153.139 97.738,152.222 98.569 M43.509 107.807 C 43.156 108.869,42.481 110.306,42.009 111.002 C 40.978 112.521,40.161 115.308,39.859 118.333 C 39.737 119.556,39.558 121.222,39.461 122.037 C 39.364 122.852,39.521 122.435,39.810 121.111 C 40.099 119.787,40.344 118.105,40.353 117.373 C 40.374 115.783,41.601 112.036,42.525 110.741 C 43.320 109.626,44.598 106.327,44.336 106.065 C 44.234 105.962,43.861 106.746,43.509 107.807 M137.569 113.426 L 136.481 114.630 137.685 113.542 C 138.807 112.528,139.059 112.222,138.773 112.222 C 138.709 112.222,138.168 112.764,137.569 113.426 M38.708 127.500 C 38.569 129.588,38.595 132.546,38.765 134.074 C 39.026 136.417,39.077 135.822,39.090 130.278 C 39.109 122.682,39.054 122.284,38.708 127.500 M366.753 133.704 C 366.753 134.417,366.829 134.708,366.922 134.352 C 367.015 133.995,367.015 133.412,366.922 133.056 C 366.829 132.699,366.753 132.991,366.753 133.704 M366.296 136.643 C 366.296 137.444,366.142 138.506,365.953 139.003 C 365.764 139.500,365.521 141.135,365.412 142.638 L 365.214 145.370 365.758 142.222 C 366.507 137.885,366.802 135.185,366.527 135.185 C 366.400 135.185,366.296 135.841,366.296 136.643 M39.323 137.778 C 39.312 138.287,39.440 139.370,39.608 140.185 C 39.805 141.136,39.922 141.335,39.936 140.741 C 39.948 140.231,39.819 139.148,39.651 138.333 C 39.454 137.383,39.337 137.184,39.323 137.778 M40.037 143.549 C 40.057 144.347,40.210 145.417,40.377 145.926 C 40.566 146.501,40.603 146.010,40.474 144.630 C 40.235 142.056,39.983 141.434,40.037 143.549 M364.467 147.130 C 364.228 147.995,363.950 148.954,363.851 149.259 C 363.751 149.565,363.907 149.398,364.198 148.889 C 364.749 147.925,365.371 145.556,365.073 145.556 C 364.980 145.556,364.707 146.264,364.467 147.130 M40.920 147.778 C 41.069 148.287,41.430 148.954,41.722 149.259 C 42.108 149.662,42.082 149.459,41.626 148.519 C 40.823 146.863,40.576 146.604,40.920 147.778 M362.391 151.662 C 361.855 152.576,361.473 153.453,361.542 153.611 C 361.610 153.768,362.115 153.020,362.663 151.949 C 363.882 149.565,363.719 149.395,362.391 151.662 M44.876 156.111 C 45.120 156.722,45.658 157.556,46.072 157.963 L 46.824 158.704 46.190 157.934 C 45.841 157.510,45.556 157.001,45.556 156.801 C 45.556 156.601,45.303 156.114,44.994 155.719 C 44.477 155.057,44.468 155.088,44.876 156.111 M360.370 156.615 C 360.370 156.790,359.789 157.665,359.078 158.559 C 358.367 159.453,357.783 160.369,357.781 160.593 C 357.779 160.817,357.252 161.733,356.610 162.630 C 355.857 163.680,355.722 164.012,356.230 163.562 C 356.664 163.179,357.366 162.148,357.790 161.271 C 358.214 160.395,359.052 159.060,359.651 158.306 C 360.666 157.030,360.996 156.296,360.556 156.296 C 360.454 156.296,360.370 156.440,360.370 156.615 M47.295 160.181 C 47.633 160.891,47.976 161.406,48.057 161.326 C 48.226 161.157,47.102 158.889,46.848 158.889 C 46.755 158.889,46.956 159.470,47.295 160.181 M353.669 166.204 C 353.019 167.171,351.803 168.712,350.966 169.628 L 349.444 171.293 350.871 169.998 C 352.181 168.809,355.451 164.444,355.032 164.444 C 354.932 164.444,354.319 165.236,353.669 166.204 M52.130 166.852 C 52.553 167.463,53.533 168.546,54.309 169.259 C 55.435 170.295,55.355 170.146,53.909 168.519 C 51.478 165.781,51.228 165.548,52.130 166.852 M333.742 186.865 C 333.110 187.585,332.593 188.285,332.593 188.420 C 332.593 188.556,332.719 188.508,332.873 188.315 C 333.028 188.121,333.642 187.421,334.239 186.759 C 334.836 186.097,335.227 185.556,335.108 185.556 C 334.989 185.556,334.374 186.145,333.742 186.865 M331.519 190.050 C 331.206 190.950,331.209 191.348,331.531 191.643 C 331.838 191.925,331.892 191.914,331.718 191.605 C 331.585 191.368,331.649 190.720,331.860 190.165 C 332.070 189.610,332.174 189.088,332.090 189.004 C 332.006 188.920,331.749 189.391,331.519 190.050 M67.235 198.365 C 66.890 198.892,66.671 199.387,66.749 199.465 C 66.827 199.543,67.183 199.112,67.540 198.507 C 68.339 197.156,68.100 197.045,67.235 198.365 M63.048 202.804 C 62.590 203.503,62.289 204.074,62.379 204.074 C 62.636 204.074,64.171 201.825,64.018 201.672 C 63.942 201.596,63.506 202.106,63.048 202.804 M341.854 201.698 C 341.855 201.884,342.285 202.537,342.810 203.148 L 343.765 204.259 342.928 202.963 C 341.855 201.300,341.852 201.296,341.854 201.698 M348.903 208.704 C 348.904 208.907,349.246 209.491,349.663 210.000 C 350.166 210.615,350.292 210.677,350.037 210.185 C 349.413 208.977,348.900 208.307,348.903 208.704 M55.893 210.093 C 55.440 210.755,54.470 211.962,53.738 212.775 L 52.407 214.255 53.648 213.146 C 54.829 212.091,57.271 208.889,56.895 208.889 C 56.797 208.889,56.346 209.431,55.893 210.093 M351.221 212.076 C 352.249 213.217,354.583 216.493,356.559 219.572 C 357.128 220.458,358.279 221.980,359.117 222.955 C 360.019 224.004,360.748 225.291,360.900 226.106 C 361.043 226.863,361.244 227.398,361.347 227.295 C 361.789 226.853,360.681 224.269,359.438 222.842 C 358.697 221.992,357.527 220.463,356.838 219.444 C 356.149 218.426,354.851 216.509,353.953 215.185 C 353.055 213.861,351.840 212.362,351.253 211.853 L 350.185 210.929 351.221 212.076 M51.464 215.959 C 51.236 216.384,50.446 217.426,49.707 218.274 L 48.364 219.815 49.651 218.622 C 50.864 217.499,52.492 215.185,52.071 215.185 C 51.965 215.185,51.692 215.533,51.464 215.959 M47.557 221.204 C 47.222 221.866,46.676 222.738,46.344 223.142 C 45.774 223.836,45.777 223.848,46.416 223.352 C 47.075 222.840,48.714 220.000,48.350 220.000 C 48.250 220.000,47.893 220.542,47.557 221.204 M44.855 225.278 C 44.269 226.846,44.024 227.778,44.199 227.778 C 44.296 227.778,44.630 227.028,44.943 226.111 C 45.513 224.436,45.438 223.720,44.855 225.278 M361.490 228.074 C 361.480 228.640,362.479 230.686,363.153 231.481 C 363.412 231.787,363.922 232.993,364.286 234.162 C 364.649 235.331,365.018 236.217,365.104 236.131 C 365.348 235.887,364.038 232.105,363.491 231.475 C 363.223 231.166,362.665 230.166,362.251 229.253 C 361.837 228.340,361.494 227.809,361.490 228.074 M42.098 231.840 C 40.651 234.776,40.282 235.922,40.171 237.828 L 40.034 240.185 40.375 237.778 C 40.604 236.151,41.273 234.252,42.436 231.924 C 43.383 230.029,44.097 228.418,44.023 228.344 C 43.949 228.270,43.083 229.843,42.098 231.840 M100.556 231.111 C 101.351 231.926,102.086 232.593,102.187 232.593 C 102.289 232.593,101.722 231.926,100.926 231.111 C 100.130 230.296,99.396 229.630,99.294 229.630 C 99.192 229.630,99.760 230.296,100.556 231.111 M365.224 237.635 C 365.203 238.269,365.371 239.686,365.598 240.783 C 365.825 241.880,366.146 243.944,366.311 245.370 L 366.612 247.963 366.452 245.185 C 366.266 241.972,365.282 235.921,365.224 237.635 M106.667 237.153 C 106.667 237.217,107.208 237.758,107.870 238.357 L 109.074 239.444 107.986 238.241 C 106.972 237.119,106.667 236.867,106.667 237.153 M39.444 242.222 C 39.301 243.267,39.261 244.200,39.357 244.295 C 39.453 244.391,39.645 243.611,39.784 242.562 C 39.923 241.513,39.962 240.580,39.871 240.489 C 39.780 240.397,39.588 241.178,39.444 242.222 M111.852 242.407 C 112.543 243.120,113.192 243.704,113.293 243.704 C 113.395 243.704,112.913 243.120,112.222 242.407 C 111.531 241.694,110.882 241.111,110.781 241.111 C 110.679 241.111,111.161 241.694,111.852 242.407 M38.678 248.426 C 38.468 251.123,38.564 253.302,39.057 257.037 C 39.420 259.787,39.857 263.195,40.029 264.610 C 40.368 267.405,40.806 268.726,42.073 270.772 C 42.525 271.503,43.360 273.409,43.928 275.009 C 44.496 276.609,45.428 278.451,46.000 279.102 C 46.572 279.753,47.296 280.899,47.609 281.649 C 47.923 282.399,48.798 283.710,49.555 284.562 C 50.312 285.414,51.504 286.850,52.204 287.753 C 53.698 289.680,58.548 294.815,58.873 294.815 C 58.997 294.815,57.719 293.356,56.033 291.574 C 54.348 289.792,52.509 287.671,51.948 286.862 C 51.386 286.052,50.409 284.882,49.777 284.260 C 49.144 283.639,48.290 282.384,47.878 281.473 C 47.466 280.561,46.770 279.442,46.332 278.986 C 45.893 278.530,45.012 276.780,44.373 275.097 C 43.733 273.414,42.853 271.454,42.416 270.741 C 41.160 268.692,40.749 267.413,40.389 264.441 C 40.205 262.915,39.773 259.750,39.429 257.407 C 38.971 254.280,38.870 252.041,39.047 248.981 C 39.344 243.870,39.064 243.449,38.678 248.426 M366.251 257.037 C 365.618 264.279,364.393 269.348,362.547 272.351 C 361.940 273.338,361.498 274.308,361.563 274.505 C 361.941 275.639,365.171 267.788,365.550 264.815 C 365.770 263.083,366.126 260.833,366.341 259.815 C 366.555 258.796,366.670 257.213,366.596 256.296 C 366.470 254.737,366.448 254.784,366.251 257.037 M261.643 274.537 L 260.556 275.741 261.759 274.653 C 262.421 274.055,262.963 273.513,262.963 273.449 C 262.963 273.163,262.657 273.415,261.643 274.537 M360.734 276.722 C 360.500 277.608,359.770 278.917,359.112 279.630 C 358.454 280.343,357.725 281.375,357.493 281.925 C 357.261 282.474,356.516 283.557,355.838 284.332 C 355.160 285.107,354.129 286.407,353.547 287.222 C 352.085 289.270,352.552 288.794,321.906 319.444 C 295.768 345.587,290.921 350.243,288.611 351.428 C 288.051 351.715,286.904 352.660,286.062 353.529 C 284.966 354.659,283.960 355.274,282.518 355.693 C 281.411 356.014,280.100 356.638,279.604 357.077 C 278.334 358.205,276.055 359.144,273.889 359.433 C 272.870 359.569,271.620 359.931,271.111 360.236 C 270.509 360.598,270.444 360.703,270.926 360.537 C 271.333 360.397,272.900 360.042,274.407 359.747 C 276.407 359.356,277.715 358.826,279.246 357.787 C 280.400 357.003,282.038 356.175,282.885 355.947 C 283.873 355.681,285.114 354.872,286.345 353.692 C 287.400 352.680,288.448 351.852,288.673 351.852 C 288.898 351.852,289.747 351.260,290.560 350.538 C 291.372 349.815,292.620 348.779,293.333 348.235 C 295.802 346.354,352.457 289.436,353.696 287.593 C 354.381 286.574,355.487 285.126,356.153 284.374 C 356.820 283.622,357.644 282.456,357.983 281.781 C 358.323 281.107,359.063 280.056,359.627 279.444 C 360.635 278.353,361.746 275.697,361.358 275.308 C 361.249 275.199,360.968 275.836,360.734 276.722 M63.379 299.488 C 65.697 301.854,69.009 305.176,70.741 306.869 C 72.472 308.563,79.970 316.043,87.401 323.493 C 94.833 330.942,101.014 337.037,101.136 337.037 C 101.294 337.037,72.827 308.446,68.501 304.259 C 68.290 304.056,66.199 301.931,63.854 299.537 C 61.509 297.144,59.495 295.185,59.378 295.185 C 59.262 295.185,61.062 297.121,63.379 299.488 M238.680 297.500 L 237.593 298.704 238.796 297.616 C 239.458 297.018,240.000 296.476,240.000 296.412 C 240.000 296.126,239.694 296.378,238.680 297.500 M230.350 305.833 L 229.074 307.222 230.463 305.946 C 231.756 304.758,232.022 304.444,231.739 304.444 C 231.677 304.444,231.052 305.069,230.350 305.833 M200.612 335.833 C 200.517 335.986,201.435 336.054,202.653 335.984 C 204.392 335.885,205.039 336.004,205.674 336.540 L 206.481 337.222 205.776 336.389 C 205.065 335.550,201.056 335.118,200.612 335.833 M105.370 341.434 C 109.312 345.480,114.367 349.992,117.037 351.849 C 117.750 352.345,118.389 352.882,118.457 353.042 C 118.525 353.202,118.743 353.333,118.942 353.333 C 119.577 353.333,118.872 352.591,117.284 351.589 C 115.045 350.176,111.012 346.679,107.450 343.062 C 105.742 341.327,103.659 339.311,102.821 338.581 C 101.982 337.850,103.130 339.135,105.370 341.434 M196.889 340.025 C 196.095 340.623,195.602 341.111,195.792 341.111 C 195.983 341.111,196.716 340.618,197.421 340.015 C 199.062 338.613,198.760 338.619,196.889 340.025 M208.097 339.608 C 208.577 340.027,209.147 340.370,209.362 340.370 C 209.817 340.370,209.796 340.352,208.333 339.496 L 207.222 338.845 208.097 339.608 M211.852 343.079 C 211.852 343.171,212.464 343.712,213.212 344.282 C 213.959 344.853,214.454 345.130,214.311 344.899 C 214.018 344.425,211.852 342.822,211.852 343.079 M192.171 344.466 L 191.296 345.229 192.407 344.579 C 193.870 343.722,193.892 343.704,193.436 343.704 C 193.221 343.704,192.652 344.047,192.171 344.466 M189.415 346.979 C 187.630 348.155,183.923 351.389,185.004 350.826 C 185.414 350.613,186.080 350.070,186.486 349.620 C 186.891 349.169,188.097 348.239,189.167 347.553 C 190.236 346.867,191.111 346.220,191.111 346.116 C 191.111 345.859,191.129 345.850,189.415 346.979 M214.815 346.076 C 214.815 346.177,215.565 346.777,216.481 347.407 C 217.398 348.038,218.148 348.471,218.148 348.369 C 218.148 348.267,217.398 347.668,216.481 347.037 C 215.565 346.406,214.815 345.974,214.815 346.076 M220.507 350.501 C 221.503 351.339,224.876 353.357,224.421 352.844 C 224.307 352.714,223.140 351.933,221.829 351.108 C 220.517 350.282,219.923 350.009,220.507 350.501 M183.148 351.549 C 182.741 351.777,181.657 352.656,180.741 353.502 C 179.713 354.450,178.293 355.293,177.037 355.700 C 175.917 356.063,174.657 356.678,174.238 357.067 C 173.819 357.455,172.819 358.113,172.016 358.529 C 171.138 358.984,170.925 359.192,171.481 359.050 C 171.991 358.920,173.009 358.342,173.744 357.765 C 174.479 357.188,175.968 356.426,177.052 356.071 C 178.247 355.680,179.776 354.758,180.932 353.732 C 181.981 352.800,183.159 351.839,183.550 351.596 C 184.452 351.035,184.132 350.997,183.148 351.549 M224.999 354.032 C 225.724 354.873,227.778 356.139,227.778 355.745 C 227.778 355.405,230.505 356.665,231.291 357.370 C 231.701 357.737,232.287 358.164,232.593 358.319 C 233.521 358.788,230.999 356.694,229.927 356.106 C 229.079 355.640,228.065 355.333,226.973 355.213 C 226.836 355.198,226.169 354.733,225.491 354.180 C 224.469 353.346,224.385 353.320,224.999 354.032 M119.461 354.101 C 119.757 354.580,122.156 355.760,123.485 356.080 C 124.078 356.223,125.480 356.997,126.601 357.800 C 127.722 358.602,128.904 359.253,129.227 359.245 C 129.550 359.237,129.315 359.008,128.704 358.736 C 128.093 358.464,126.959 357.732,126.184 357.109 C 125.410 356.486,124.243 355.865,123.592 355.729 C 122.940 355.594,121.695 355.092,120.825 354.614 C 119.954 354.137,119.340 353.906,119.461 354.101 M233.781 358.871 C 234.490 359.328,238.498 360.144,238.759 359.883 C 238.851 359.791,237.960 359.543,236.778 359.332 C 235.596 359.121,234.296 358.839,233.889 358.705 C 233.238 358.492,233.225 358.512,233.781 358.871 M132.070 359.777 C 133.310 360.065,135.378 360.831,136.664 361.480 C 139.450 362.886,143.029 363.340,150.741 363.264 C 155.623 363.216,155.574 363.209,148.647 362.952 C 140.181 362.638,139.663 362.553,136.209 360.914 C 134.729 360.213,132.685 359.552,131.667 359.447 C 129.825 359.256,129.827 359.258,132.070 359.777 M166.574 359.852 C 165.606 360.149,164.815 360.489,164.815 360.606 C 164.815 360.724,165.106 360.704,165.463 360.562 C 165.819 360.420,167.111 360.082,168.333 359.811 C 169.709 359.506,170.132 359.317,169.444 359.315 C 168.833 359.312,167.542 359.554,166.574 359.852 M239.290 360.146 C 239.604 360.444,242.222 361.437,242.222 361.258 C 242.222 361.157,241.644 360.832,240.938 360.537 C 239.694 360.017,238.973 359.846,239.290 360.146 M268.148 361.476 C 266.425 362.413,264.727 362.647,257.237 362.982 L 250.926 363.264 258.231 363.128 C 265.524 362.992,268.121 362.526,269.796 361.051 C 270.419 360.502,269.507 360.738,268.148 361.476 M161.667 361.936 C 161.259 362.174,159.759 362.478,158.333 362.611 L 155.741 362.854 157.963 362.899 C 159.782 362.935,164.432 361.606,162.778 361.523 C 162.574 361.512,162.074 361.699,161.667 361.936 M243.889 362.242 C 244.948 362.744,246.109 362.930,247.963 362.896 L 250.556 362.848 247.593 362.610 C 245.963 362.479,244.266 362.172,243.821 361.927 C 243.376 361.682,242.876 361.495,242.710 361.511 C 242.543 361.528,243.074 361.857,243.889 362.242 " stroke="none" fill="#e8e3a0" fill-rule="evenodd"></path><path id="path4" d="M145.335 54.039 C 144.183 54.179,142.957 54.633,142.187 55.204 C 141.493 55.718,140.129 56.549,139.155 57.051 C 138.181 57.553,136.931 58.352,136.377 58.827 L 135.370 59.691 136.481 58.970 C 137.093 58.573,138.343 57.847,139.259 57.355 C 140.176 56.864,141.598 56.010,142.419 55.458 C 143.762 54.554,144.392 54.421,148.715 54.132 C 152.815 53.857,153.057 53.810,150.370 53.809 C 148.639 53.808,146.373 53.912,145.335 54.039 M250.470 54.052 C 249.608 54.192,248.775 54.442,248.618 54.607 C 248.461 54.772,248.735 54.783,249.225 54.632 C 249.716 54.481,252.049 54.235,254.411 54.086 L 258.704 53.814 255.370 53.805 C 253.537 53.800,251.332 53.911,250.470 54.052 M155.446 54.432 C 156.302 54.618,157.917 55.355,159.035 56.070 C 160.875 57.247,165.024 59.421,163.704 58.516 C 160.542 56.349,156.631 54.335,155.370 54.225 L 153.889 54.094 155.446 54.432 M260.370 54.427 C 261.287 54.566,262.662 55.061,263.426 55.525 C 264.190 55.989,264.815 56.277,264.815 56.163 C 264.815 55.545,261.463 54.079,260.153 54.124 L 258.704 54.173 260.370 54.427 M244.165 57.136 C 242.687 57.962,241.531 58.691,241.596 58.757 C 241.773 58.933,246.611 56.315,246.864 55.906 C 247.142 55.456,247.292 55.388,244.165 57.136 M265.679 56.739 C 267.708 58.183,270.084 59.586,269.444 58.962 C 269.037 58.565,267.870 57.794,266.852 57.248 C 265.833 56.703,265.305 56.474,265.679 56.739 M240.162 60.463 L 239.074 61.667 240.278 60.579 C 240.940 59.981,241.481 59.439,241.481 59.375 C 241.481 59.089,241.176 59.341,240.162 60.463 M164.999 60.312 C 165.402 60.789,166.068 61.351,166.477 61.561 C 167.264 61.964,167.149 61.840,165.373 60.365 C 164.304 59.477,164.290 59.475,164.999 60.312 M133.902 61.154 C 131.956 62.616,131.774 62.859,133.266 62.002 C 134.317 61.398,135.969 59.949,135.520 60.025 C 135.438 60.039,134.710 60.547,133.902 61.154 M270.180 60.362 C 270.305 60.565,271.175 61.259,272.113 61.904 C 273.051 62.549,273.705 62.894,273.566 62.669 C 273.427 62.445,272.557 61.751,271.633 61.127 C 270.708 60.503,270.054 60.159,270.180 60.362 M283.519 73.208 C 301.312 91.064,313.892 103.554,312.556 102.037 C 310.877 100.129,277.386 66.638,275.185 64.666 C 274.269 63.845,278.019 67.688,283.519 73.208 M169.630 64.782 C 170.139 65.198,170.722 65.540,170.926 65.542 C 171.322 65.544,170.653 65.032,169.444 64.407 C 168.952 64.153,169.015 64.279,169.630 64.782 M129.273 65.571 C 127.600 67.001,128.010 66.990,129.815 65.556 C 130.584 64.944,131.065 64.451,130.884 64.459 C 130.703 64.468,129.979 64.968,129.273 65.571 M126.605 68.433 C 126.537 68.589,126.001 69.089,125.413 69.544 C 124.825 69.998,124.492 70.366,124.672 70.360 C 125.187 70.345,127.645 68.169,127.160 68.158 C 126.923 68.153,126.673 68.276,126.605 68.433 M172.994 68.256 C 173.079 68.315,173.815 68.827,174.630 69.394 L 176.111 70.424 174.829 69.286 C 174.124 68.660,173.387 68.148,173.193 68.148 C 172.999 68.148,172.909 68.197,172.994 68.256 M230.319 69.652 L 229.444 70.414 230.556 69.764 C 232.018 68.907,232.040 68.889,231.584 68.889 C 231.369 68.889,230.800 69.232,230.319 69.652 M122.407 72.480 C 121.389 73.421,120.889 74.011,121.296 73.792 C 122.001 73.413,124.771 70.725,124.425 70.755 C 124.334 70.764,123.426 71.540,122.407 72.480 M227.315 72.805 C 226.551 73.305,225.926 73.790,225.926 73.882 C 225.926 74.127,228.485 72.577,228.727 72.185 C 229.015 71.719,228.887 71.775,227.315 72.805 M223.148 76.898 C 222.482 77.465,222.346 77.690,222.808 77.461 C 223.487 77.123,224.761 75.904,224.397 75.939 C 224.321 75.947,223.759 76.378,223.148 76.898 M116.667 78.139 C 116.667 78.338,116.047 79.046,115.291 79.713 C 114.534 80.380,113.492 81.408,112.976 81.996 C 112.459 82.585,111.644 83.419,111.163 83.848 C 109.887 84.990,105.498 89.366,104.589 90.404 C 104.159 90.895,103.326 91.726,102.737 92.250 C 102.148 92.775,101.133 93.775,100.481 94.472 C 99.829 95.170,98.912 96.094,98.444 96.525 C 97.976 96.956,97.343 97.586,97.037 97.923 C 96.731 98.261,95.148 99.845,93.519 101.443 C 91.889 103.040,90.208 104.744,89.784 105.229 C 89.360 105.714,88.527 106.549,87.932 107.085 C 87.338 107.620,86.349 108.625,85.734 109.318 C 85.119 110.011,84.273 110.823,83.853 111.122 C 83.433 111.422,82.769 112.161,82.378 112.765 C 81.743 113.745,84.507 111.040,92.840 102.527 C 94.300 101.035,96.800 98.558,98.395 97.023 C 99.991 95.487,101.648 93.820,102.078 93.319 C 102.507 92.818,103.341 91.969,103.929 91.433 C 104.518 90.897,106.197 89.230,107.660 87.729 C 109.123 86.228,110.796 84.583,111.377 84.074 C 111.959 83.565,112.679 82.815,112.977 82.407 C 113.275 82.000,114.185 81.097,115.000 80.400 C 116.733 78.920,117.629 77.778,117.058 77.778 C 116.843 77.778,116.667 77.940,116.667 78.139 M219.259 80.774 C 218.644 81.277,218.582 81.403,219.074 81.148 C 220.282 80.524,220.952 80.011,220.556 80.014 C 220.352 80.015,219.769 80.357,219.259 80.774 M215.370 84.662 L 214.259 85.617 215.556 84.780 C 217.218 83.707,217.223 83.703,216.821 83.706 C 216.634 83.707,215.981 84.137,215.370 84.662 M211.852 88.181 C 211.237 88.684,211.175 88.810,211.667 88.556 C 212.875 87.931,213.544 87.419,213.148 87.421 C 212.944 87.423,212.361 87.765,211.852 88.181 M207.963 92.069 L 206.852 93.024 208.148 92.188 C 209.811 91.114,209.815 91.111,209.414 91.113 C 209.227 91.114,208.574 91.544,207.963 92.069 M204.716 95.384 C 203.955 95.900,203.333 96.403,203.333 96.500 C 203.333 96.597,204.000 96.236,204.815 95.697 C 206.109 94.841,206.546 94.444,206.197 94.444 C 206.143 94.444,205.476 94.867,204.716 95.384 M200.556 99.477 L 199.444 100.432 200.741 99.595 C 202.404 98.522,202.408 98.518,202.006 98.520 C 201.819 98.521,201.167 98.952,200.556 99.477 M314.434 103.912 C 314.734 104.307,317.445 107.109,320.460 110.139 C 323.475 113.169,326.302 116.169,326.743 116.805 C 327.184 117.442,327.982 118.473,328.515 119.097 C 329.048 119.720,329.780 121.220,330.142 122.430 C 330.917 125.022,332.193 128.157,332.210 127.513 C 332.217 127.265,331.982 126.515,331.689 125.846 C 331.395 125.177,330.867 123.653,330.514 122.459 C 330.161 121.264,329.312 119.616,328.624 118.794 C 327.937 117.972,327.214 116.997,327.016 116.627 C 326.818 116.257,323.784 113.084,320.273 109.574 C 316.762 106.065,314.134 103.517,314.434 103.912 M79.902 115.093 C 77.124 118.179,73.902 124.026,74.597 124.720 C 74.679 124.802,75.006 123.976,75.324 122.883 C 75.693 121.613,76.769 119.732,78.307 117.670 C 80.609 114.582,81.155 113.700,79.902 115.093 M73.795 126.524 C 73.276 128.257,72.832 132.164,73.315 130.741 C 73.488 130.231,73.646 129.262,73.667 128.587 C 73.687 127.911,73.881 127.027,74.098 126.622 C 74.315 126.216,74.432 125.705,74.359 125.485 C 74.286 125.265,74.032 125.732,73.795 126.524 M332.308 129.259 C 332.308 129.972,332.384 130.264,332.478 129.907 C 332.571 129.551,332.571 128.968,332.478 128.611 C 332.384 128.255,332.308 128.546,332.308 129.259 M331.346 135.117 C 330.268 138.397,330.244 138.940,331.292 136.311 C 331.817 134.995,332.199 133.715,332.142 133.465 C 332.084 133.216,331.726 133.959,331.346 135.117 M74.080 135.401 C 74.083 135.792,74.255 136.361,74.461 136.667 C 74.736 137.072,74.770 136.923,74.589 136.111 C 74.284 134.749,74.072 134.454,74.080 135.401 M328.866 141.204 C 327.529 142.899,327.132 143.741,328.298 142.407 C 329.239 141.331,330.136 140.000,329.920 140.000 C 329.862 140.000,329.388 140.542,328.866 141.204 M326.281 144.836 C 325.838 145.459,325.537 146.030,325.612 146.106 C 325.688 146.181,326.124 145.672,326.582 144.974 C 327.614 143.399,327.381 143.292,326.281 144.836 M81.134 147.251 C 81.835 148.081,82.482 148.701,82.574 148.627 C 82.666 148.554,82.093 147.874,81.301 147.117 L 79.861 145.741 81.134 147.251 M321.688 149.928 C 319.881 152.010,319.878 152.018,321.440 150.556 C 322.756 149.323,324.025 147.720,323.624 147.798 C 323.566 147.810,322.695 148.768,321.688 149.928 M306.677 216.524 C 306.682 216.704,307.140 217.358,307.695 217.977 C 308.812 219.224,308.713 218.906,307.474 217.265 C 307.030 216.677,306.671 216.344,306.677 216.524 M315.152 225.493 C 315.352 225.867,315.806 226.408,316.162 226.697 C 316.562 227.022,316.472 226.763,315.927 226.019 C 314.954 224.690,314.590 224.443,315.152 225.493 M86.667 228.889 C 86.021 229.704,85.577 230.370,85.678 230.370 C 85.780 230.370,86.392 229.704,87.037 228.889 C 87.682 228.074,88.127 227.407,88.025 227.407 C 87.923 227.407,87.312 228.074,86.667 228.889 M318.530 228.420 C 318.524 228.671,318.977 229.346,319.537 229.919 C 320.097 230.493,320.287 230.620,319.958 230.203 C 319.629 229.786,319.176 229.111,318.951 228.704 C 318.725 228.296,318.536 228.169,318.530 228.420 M82.736 232.853 C 81.951 233.811,81.502 234.476,81.738 234.329 C 82.242 234.018,84.588 231.111,84.335 231.111 C 84.241 231.111,83.521 231.895,82.736 232.853 M322.547 232.908 C 323.374 233.897,324.345 234.938,324.704 235.223 C 325.063 235.508,324.459 234.699,323.363 233.426 C 322.267 232.153,321.297 231.111,321.206 231.111 C 321.116 231.111,321.719 231.920,322.547 232.908 M79.943 235.833 C 78.794 237.083,76.511 240.511,77.048 240.178 C 77.262 240.046,77.867 239.243,78.393 238.395 C 78.919 237.546,79.776 236.394,80.299 235.833 C 80.822 235.273,81.166 234.815,81.065 234.815 C 80.963 234.815,80.458 235.273,79.943 235.833 M327.407 238.519 C 327.843 239.130,328.282 239.630,328.384 239.630 C 328.486 239.630,328.213 239.130,327.778 238.519 C 327.343 237.907,326.903 237.407,326.801 237.407 C 326.700 237.407,326.972 237.907,327.407 238.519 M328.824 240.463 C 329.094 240.796,329.628 241.870,330.010 242.849 C 330.393 243.828,330.710 244.380,330.715 244.074 C 330.729 243.249,329.412 240.507,328.835 240.160 C 328.417 239.908,328.415 239.958,328.824 240.463 M75.774 241.574 C 75.478 242.032,75.138 242.907,75.020 243.519 C 74.847 244.404,74.917 244.337,75.364 243.187 C 75.672 242.394,76.112 241.519,76.341 241.243 C 76.570 240.967,76.657 240.741,76.535 240.741 C 76.413 240.741,76.071 241.116,75.774 241.574 M73.909 246.971 C 73.549 248.160,73.336 249.452,73.436 249.844 C 73.576 250.391,73.628 250.335,73.661 249.603 C 73.684 249.079,73.972 247.862,74.301 246.898 C 74.629 245.934,74.823 245.070,74.731 244.978 C 74.639 244.885,74.269 245.783,73.909 246.971 M331.329 246.481 C 331.475 246.889,331.819 248.139,332.094 249.259 L 332.594 251.296 332.413 249.525 C 332.314 248.550,331.970 247.300,331.648 246.747 C 331.327 246.194,331.183 246.074,331.329 246.481 M72.979 251.296 C 72.939 253.770,75.159 259.928,77.186 262.963 C 79.955 267.109,134.762 322.204,137.778 323.874 C 138.083 324.043,137.583 323.547,136.667 322.771 C 135.750 321.995,122.614 309.013,107.476 293.921 C 75.605 262.147,76.249 262.897,74.214 255.185 C 73.542 252.639,72.986 250.889,72.979 251.296 M332.417 251.944 C 332.279 252.362,331.576 254.965,330.941 257.407 C 330.790 257.987,330.917 257.863,331.281 257.074 C 331.877 255.784,332.981 251.481,332.717 251.481 C 332.636 251.481,332.501 251.690,332.417 251.944 M329.999 260.003 C 329.729 260.822,329.285 261.677,329.013 261.903 C 328.741 262.128,328.519 262.482,328.519 262.688 C 328.519 263.270,329.808 261.437,330.353 260.081 C 330.621 259.412,330.762 258.786,330.665 258.690 C 330.569 258.594,330.269 259.185,329.999 260.003 M327.309 264.169 L 326.656 265.370 327.402 264.496 C 328.037 263.752,328.376 262.957,328.056 262.965 C 328.005 262.967,327.669 263.508,327.309 264.169 M323.501 268.611 L 322.037 270.185 323.611 268.721 C 325.075 267.360,325.355 267.037,325.075 267.037 C 325.015 267.037,324.306 267.745,323.501 268.611 M319.421 272.685 L 318.333 273.889 319.537 272.801 C 320.199 272.203,320.741 271.661,320.741 271.597 C 320.741 271.311,320.435 271.563,319.421 272.685 M315.603 276.473 C 314.762 277.385,314.074 278.246,314.074 278.387 C 314.074 278.527,314.129 278.573,314.196 278.488 C 314.263 278.403,315.034 277.542,315.910 276.574 C 316.785 275.606,317.418 274.815,317.317 274.815 C 317.215 274.815,316.443 275.561,315.603 276.473 M312.185 279.907 C 310.944 281.235,309.428 283.181,310.238 282.407 C 311.121 281.565,313.786 278.519,313.641 278.519 C 313.554 278.519,312.899 279.144,312.185 279.907 M308.294 283.796 C 307.159 285.027,305.830 286.780,306.540 286.111 C 307.331 285.365,309.711 282.593,309.560 282.593 C 309.475 282.593,308.905 283.134,308.294 283.796 M297.024 295.109 C 292.230 299.938,288.063 304.207,287.765 304.597 C 287.124 305.433,302.918 289.710,304.753 287.685 C 307.489 284.667,305.366 286.706,297.024 295.109 M188.799 298.241 C 188.319 298.699,188.185 298.889,188.500 298.663 C 188.816 298.437,189.407 298.067,189.815 297.841 C 190.222 297.615,190.357 297.425,190.113 297.419 C 189.870 297.412,189.278 297.782,188.799 298.241 M181.481 305.608 L 179.444 307.490 181.388 305.933 C 183.092 304.569,183.993 303.678,183.633 303.715 C 183.570 303.722,182.602 304.574,181.481 305.608 M285.717 306.389 L 284.630 307.593 285.833 306.505 C 286.495 305.906,287.037 305.365,287.037 305.301 C 287.037 305.015,286.731 305.267,285.717 306.389 M281.832 310.278 L 280.556 311.667 281.944 310.390 C 283.237 309.202,283.504 308.889,283.221 308.889 C 283.159 308.889,282.534 309.514,281.832 310.278 M278.647 313.561 L 276.852 315.271 278.519 313.879 C 280.754 312.013,280.925 311.852,280.665 311.852 C 280.543 311.852,279.634 312.621,278.647 313.561 M173.690 313.360 L 172.407 314.498 173.889 313.468 C 174.704 312.901,175.440 312.389,175.525 312.330 C 175.610 312.271,175.520 312.222,175.326 312.222 C 175.131 312.222,174.395 312.734,173.690 313.360 M230.926 312.831 C 232.812 314.504,233.506 314.992,232.779 314.132 C 232.376 313.655,231.710 313.093,231.300 312.883 C 230.891 312.674,230.722 312.650,230.926 312.831 M233.333 315.301 C 233.333 315.403,234.167 316.184,235.185 317.037 C 236.204 317.890,237.037 318.504,237.037 318.402 C 237.037 318.300,236.204 317.519,235.185 316.667 C 234.167 315.814,233.333 315.200,233.333 315.301 M170.000 317.068 L 168.333 318.579 170.093 317.208 C 171.635 316.006,172.092 315.553,171.759 315.557 C 171.708 315.557,170.917 316.237,170.000 317.068 M274.943 317.265 L 273.148 318.974 274.815 317.583 C 277.051 315.717,277.221 315.556,276.962 315.556 C 276.839 315.556,275.931 316.325,274.943 317.265 M270.827 321.122 C 270.162 321.727,269.756 322.222,269.925 322.222 C 270.094 322.222,270.711 321.722,271.296 321.111 C 272.658 319.690,272.395 319.696,270.827 321.122 M164.895 321.759 C 164.010 322.625,163.995 322.667,164.797 322.043 C 166.378 320.811,166.453 320.741,166.191 320.741 C 166.052 320.741,165.469 321.199,164.895 321.759 M241.296 322.547 C 242.426 323.790,244.367 325.016,244.692 324.691 C 244.790 324.592,244.506 324.396,244.061 324.255 C 243.616 324.114,242.562 323.396,241.718 322.661 C 240.195 321.332,240.193 321.331,241.296 322.547 M268.675 323.009 C 268.534 323.238,267.316 323.925,265.968 324.535 C 264.621 325.145,262.988 326.109,262.341 326.677 C 261.129 327.739,261.291 327.707,254.259 328.274 C 253.444 328.340,253.944 328.412,255.370 328.434 C 259.183 328.493,261.348 328.042,262.513 326.944 C 263.066 326.423,264.646 325.490,266.024 324.871 C 268.384 323.811,270.139 322.593,269.308 322.593 C 269.101 322.593,268.817 322.780,268.675 323.009 M160.741 324.642 C 159.417 325.328,158.468 325.897,158.632 325.907 C 158.929 325.926,163.357 323.804,163.665 323.495 C 164.112 323.048,162.900 323.524,160.741 324.642 M139.444 324.617 C 140.056 324.911,140.740 325.159,140.966 325.168 C 141.192 325.178,142.182 325.894,143.165 326.759 L 144.954 328.333 150.162 328.331 C 154.514 328.328,155.521 328.222,156.286 327.682 C 156.790 327.327,157.031 327.037,156.823 327.037 C 156.615 327.037,156.236 327.245,155.981 327.500 C 155.654 327.827,153.965 327.963,150.221 327.963 L 144.924 327.963 143.369 326.558 C 141.839 325.176,141.099 324.771,139.259 324.312 C 138.493 324.121,138.525 324.174,139.444 324.617 M248.969 327.130 C 249.759 327.901,250.347 328.137,251.395 328.102 L 252.778 328.055 251.208 327.800 C 250.344 327.659,249.253 327.221,248.782 326.827 C 248.312 326.433,248.396 326.569,248.969 327.130 " stroke="none" fill="#c0d0f9" fill-rule="evenodd"></path></g></svg>